%TF.GenerationSoftware,KiCad,Pcbnew,(6.0.4-0)*%
%TF.CreationDate,2022-06-10T10:13:31+02:00*%
%TF.ProjectId,basbousa,62617362-6f75-4736-912e-6b696361645f,v1.0.0*%
%TF.SameCoordinates,Original*%
%TF.FileFunction,Paste,Top*%
%TF.FilePolarity,Positive*%
%FSLAX46Y46*%
G04 Gerber Fmt 4.6, Leading zero omitted, Abs format (unit mm)*
G04 Created by KiCad (PCBNEW (6.0.4-0)) date 2022-06-10 10:13:31*
%MOMM*%
%LPD*%
G01*
G04 APERTURE LIST*
G04 Aperture macros list*
%AMRotRect*
0 Rectangle, with rotation*
0 The origin of the aperture is its center*
0 $1 length*
0 $2 width*
0 $3 Rotation angle, in degrees counterclockwise*
0 Add horizontal line*
21,1,$1,$2,0,0,$3*%
G04 Aperture macros list end*
%ADD10R,0.900000X0.900000*%
%ADD11R,1.250000X0.900000*%
%ADD12RotRect,2.600000X2.600000X10.000000*%
%ADD13RotRect,2.600000X2.600000X5.000000*%
%ADD14R,2.600000X2.600000*%
%ADD15RotRect,2.600000X2.600000X341.000000*%
%ADD16RotRect,2.600000X2.600000X17.000000*%
%ADD17RotRect,2.600000X2.600000X356.000000*%
G04 APERTURE END LIST*
D10*
%TO.C,T1*%
X156169000Y87958000D03*
X158369000Y95358000D03*
X158369000Y87958000D03*
X156169000Y95358000D03*
D11*
X155194000Y89408000D03*
X155194000Y92408000D03*
X155194000Y93908000D03*
%TD*%
D12*
%TO.C,S11*%
X75199557Y111381133D03*
X64207053Y107208920D03*
%TD*%
D13*
%TO.C,S15*%
X97649093Y103326959D03*
X86334787Y100128683D03*
%TD*%
D14*
%TO.C,S21*%
X118452086Y93711016D03*
X106902086Y91511017D03*
%TD*%
%TO.C,S29*%
X124967546Y106973000D03*
X136517546Y109172999D03*
%TD*%
D15*
%TO.C,S33*%
X153316936Y50207741D03*
X141679946Y51887913D03*
%TD*%
D12*
%TO.C,S7*%
X81103595Y77897669D03*
X70111091Y73725456D03*
%TD*%
D16*
%TO.C,S1*%
X41093928Y79754175D03*
X30691825Y74273413D03*
%TD*%
%TO.C,S5*%
X56878681Y89917181D03*
X46476578Y84436419D03*
%TD*%
D14*
%TO.C,S27*%
X124967546Y89973000D03*
X136517546Y92172999D03*
%TD*%
D12*
%TO.C,S9*%
X78151576Y94639401D03*
X67159072Y90467188D03*
%TD*%
D13*
%TO.C,S13*%
X99130741Y86391649D03*
X87816435Y83193373D03*
%TD*%
%TO.C,S17*%
X96167446Y120262269D03*
X84853140Y117063993D03*
%TD*%
D17*
%TO.C,S31*%
X132303162Y55355504D03*
X120627833Y53966551D03*
%TD*%
D16*
%TO.C,S3*%
X61849000Y73660000D03*
X51446897Y68179238D03*
%TD*%
D14*
%TO.C,S23*%
X118452086Y110711016D03*
X106902086Y108511017D03*
%TD*%
%TO.C,S25*%
X124967546Y72973000D03*
X136517546Y75172999D03*
%TD*%
%TO.C,S19*%
X118452086Y76711016D03*
X106902086Y74511017D03*
%TD*%
M02*
