%TF.GenerationSoftware,KiCad,Pcbnew,(6.0.4-0)*%
%TF.CreationDate,2022-06-10T10:13:31+02:00*%
%TF.ProjectId,basbousa,62617362-6f75-4736-912e-6b696361645f,v1.0.0*%
%TF.SameCoordinates,Original*%
%TF.FileFunction,OtherDrawing,Comment*%
%FSLAX46Y46*%
G04 Gerber Fmt 4.6, Leading zero omitted, Abs format (unit mm)*
G04 Created by KiCad (PCBNEW (6.0.4-0)) date 2022-06-10 10:13:31*
%MOMM*%
%LPD*%
G01*
G04 APERTURE LIST*
%ADD10C,0.150000*%
G04 APERTURE END LIST*
D10*
%TO.C,T1*%
X161119000Y89708000D02*
X158619000Y89708000D01*
X158619000Y93608000D02*
X161119000Y93608000D01*
X161119000Y93608000D02*
X161119000Y89708000D01*
%TO.C,S11*%
X67329402Y96843638D02*
X67155754Y97828446D01*
X65620259Y95019131D02*
X62668240Y111760862D01*
X80943062Y100259521D02*
X81116711Y99274713D01*
X78685636Y113062022D02*
X78859284Y112077214D01*
X65883135Y110804595D02*
X64898327Y110630947D01*
X78685636Y113062022D02*
X77700828Y112888373D01*
X62668240Y111760861D02*
X80394778Y114886529D01*
X67329403Y96843638D02*
X67155754Y97828446D01*
X65071976Y109646138D02*
X64898328Y110630946D01*
X80131903Y99101065D02*
X81116711Y99274713D01*
X78685635Y113062021D02*
X78859284Y112077213D01*
X67329403Y96843638D02*
X68314210Y97017286D01*
X83346798Y98144798D02*
X65620260Y95019130D01*
X80943063Y100259520D02*
X81116711Y99274713D01*
X65883136Y110804593D02*
X64898328Y110630946D01*
X78685635Y113062021D02*
X77700828Y112888372D01*
X80131903Y99101065D02*
X81116711Y99274713D01*
X62668240Y111760862D02*
X80394779Y114886529D01*
X80394779Y114886529D02*
X83346798Y98144798D01*
X65071976Y109646139D02*
X64898327Y110630947D01*
X67329402Y96843638D02*
X68314210Y97017287D01*
X80394778Y114886529D02*
X83346798Y98144798D01*
X65620260Y95019130D02*
X62668240Y111760861D01*
X83346798Y98144798D02*
X65620259Y95019131D01*
%TO.C,S15*%
X103130061Y106366224D02*
X104611709Y89430914D01*
X88541860Y89530714D02*
X89538055Y89617870D01*
X85198557Y104797420D02*
X103130061Y106366224D01*
X101268405Y104697620D02*
X100272211Y104610463D01*
X88541860Y89530714D02*
X88454705Y90526909D01*
X88541861Y89530713D02*
X88454705Y90526909D01*
X88317875Y103564593D02*
X87321680Y103477439D01*
X104611709Y89430914D02*
X86680205Y87862110D01*
X103130060Y106366224D02*
X104611709Y89430914D01*
X85198557Y104797419D02*
X103130060Y106366224D01*
X87408836Y102481244D02*
X87321680Y103477439D01*
X87408836Y102481245D02*
X87321680Y103477440D01*
X88541861Y89530713D02*
X89538055Y89617869D01*
X101268406Y104697620D02*
X101355561Y103701425D01*
X86680206Y87862109D02*
X85198557Y104797419D01*
X101492391Y90663739D02*
X102488586Y90750894D01*
X86680205Y87862110D02*
X85198557Y104797420D01*
X102401430Y91747088D02*
X102488586Y90750894D01*
X101492391Y90663739D02*
X102488586Y90750894D01*
X101268406Y104697620D02*
X100272211Y104610464D01*
X101268405Y104697620D02*
X101355562Y103701424D01*
X88317875Y103564595D02*
X87321680Y103477440D01*
X104611709Y89430914D02*
X86680206Y87862109D01*
X102401430Y91747089D02*
X102488586Y90750894D01*
%TO.C,S21*%
X108177088Y80761016D02*
X108177087Y81761017D01*
X124177087Y79261017D02*
X106177088Y79261016D01*
X122177087Y94761017D02*
X121177087Y94761017D01*
X109177087Y94761017D02*
X108177087Y94761017D01*
X122177087Y81761016D02*
X122177087Y80761017D01*
X124177087Y96261017D02*
X124177087Y79261017D01*
X106177088Y79261016D02*
X106177087Y96261016D01*
X106177087Y96261016D02*
X124177086Y96261017D01*
X122177087Y94761017D02*
X122177087Y93761017D01*
X108177087Y80761017D02*
X108177087Y81761017D01*
X122177086Y94761017D02*
X121177087Y94761016D01*
X124177087Y79261017D02*
X106177087Y79261017D01*
X108177088Y80761016D02*
X109177087Y80761016D01*
X108177087Y80761017D02*
X109177087Y80761017D01*
X124177086Y96261017D02*
X124177087Y79261017D01*
X121177087Y80761017D02*
X122177087Y80761017D01*
X109177087Y94761015D02*
X108177087Y94761016D01*
X108177087Y93761016D02*
X108177087Y94761016D01*
X106177087Y96261017D02*
X124177087Y96261017D01*
X122177086Y94761017D02*
X122177087Y93761016D01*
X121177087Y80761017D02*
X122177087Y80761017D01*
X108177087Y93761017D02*
X108177087Y94761017D01*
X122177087Y81761017D02*
X122177087Y80761017D01*
X106177087Y79261017D02*
X106177087Y96261017D01*
%TO.C,S29*%
X126242547Y96223000D02*
X127242547Y96223000D01*
X124242547Y111722999D02*
X142242546Y111723000D01*
X140242547Y97223000D02*
X140242547Y96223000D01*
X140242547Y110223000D02*
X139242547Y110223000D01*
X142242546Y111723000D02*
X142242547Y94723000D01*
X142242547Y94723000D02*
X124242547Y94723000D01*
X140242546Y110223000D02*
X140242547Y109222999D01*
X142242547Y94723000D02*
X124242548Y94722999D01*
X126242548Y96222999D02*
X126242547Y97223000D01*
X124242547Y111723000D02*
X142242547Y111723000D01*
X124242547Y94723000D02*
X124242547Y111723000D01*
X126242548Y96222999D02*
X127242547Y96222999D01*
X139242547Y96223000D02*
X140242547Y96223000D01*
X140242546Y110223000D02*
X139242547Y110222999D01*
X142242547Y111723000D02*
X142242547Y94723000D01*
X126242547Y109223000D02*
X126242547Y110223000D01*
X124242548Y94722999D02*
X124242547Y111722999D01*
X140242547Y110223000D02*
X140242547Y109223000D01*
X126242547Y96223000D02*
X126242547Y97223000D01*
X127242547Y110223000D02*
X126242547Y110223000D01*
X127242547Y110222998D02*
X126242547Y110222999D01*
X140242547Y97222999D02*
X140242547Y96223000D01*
X139242547Y96223000D02*
X140242547Y96223000D01*
X126242547Y109222999D02*
X126242547Y110222999D01*
%TO.C,S33*%
X152948454Y37696053D02*
X152622886Y36750535D01*
X137006237Y40541346D02*
X142540895Y56615162D01*
X144889099Y54220181D02*
X143943580Y54545749D01*
X139385627Y41308488D02*
X139711194Y42254008D01*
X157180840Y49987795D02*
X156235322Y50313363D01*
X157180839Y49987795D02*
X156235321Y50313362D01*
X154025571Y34681121D02*
X137006237Y40541346D01*
X142540895Y56615162D02*
X159560229Y50754937D01*
X139385626Y41308489D02*
X140331144Y40982921D01*
X151677367Y37076103D02*
X152622886Y36750535D01*
X157180840Y49987795D02*
X156855272Y49042276D01*
X152948454Y37696053D02*
X152622886Y36750535D01*
X143618012Y53600231D02*
X143943580Y54545749D01*
X144889098Y54220179D02*
X143943580Y54545748D01*
X157180839Y49987795D02*
X156855272Y49042275D01*
X159560229Y50754937D02*
X154025571Y34681121D01*
X154025571Y34681121D02*
X137006237Y40541347D01*
X143618012Y53600230D02*
X143943580Y54545748D01*
X159560229Y50754937D02*
X154025571Y34681121D01*
X151677367Y37076103D02*
X152622886Y36750535D01*
X139385626Y41308489D02*
X139711194Y42254008D01*
X142540895Y56615163D02*
X159560229Y50754937D01*
X139385627Y41308488D02*
X140331144Y40982920D01*
X137006237Y40541347D02*
X142540895Y56615163D01*
%TO.C,S7*%
X86298816Y81403065D02*
X89250836Y64661334D01*
X73233440Y63360174D02*
X73059792Y64344982D01*
X68572278Y78277397D02*
X86298816Y81403065D01*
X71524298Y61535666D02*
X68572278Y78277397D01*
X86298817Y81403065D02*
X89250836Y64661334D01*
X84589674Y79578558D02*
X84763322Y78593750D01*
X70976014Y76162674D02*
X70802366Y77147482D01*
X68572278Y78277398D02*
X86298817Y81403065D01*
X84589674Y79578558D02*
X83604866Y79404909D01*
X86035941Y65617601D02*
X87020749Y65791249D01*
X73233441Y63360174D02*
X73059792Y64344982D01*
X70976014Y76162675D02*
X70802365Y77147483D01*
X86847101Y66776056D02*
X87020749Y65791249D01*
X86035941Y65617601D02*
X87020749Y65791249D01*
X71787173Y77321131D02*
X70802365Y77147483D01*
X71787174Y77321129D02*
X70802366Y77147482D01*
X84589673Y79578557D02*
X83604866Y79404908D01*
X86847100Y66776057D02*
X87020749Y65791249D01*
X71524297Y61535667D02*
X68572278Y78277398D01*
X89250836Y64661334D02*
X71524297Y61535667D01*
X89250836Y64661334D02*
X71524298Y61535666D01*
X84589673Y79578557D02*
X84763322Y78593749D01*
X73233440Y63360174D02*
X74218248Y63533823D01*
X73233441Y63360174D02*
X74218248Y63533822D01*
%TO.C,T2*%
X161119000Y89708000D02*
X158619000Y89708000D01*
X161119000Y93608000D02*
X161119000Y89708000D01*
X158619000Y93608000D02*
X161119000Y93608000D01*
%TO.C,S1*%
X35054112Y64365910D02*
X34761739Y65322216D01*
X35054112Y64365910D02*
X36010416Y64658282D01*
X50793544Y67609401D02*
X33580060Y62346710D01*
X35054111Y64365911D02*
X34761739Y65322216D01*
X31917212Y78046549D02*
X30960907Y77754177D01*
X45823224Y83866581D02*
X50793544Y67609401D01*
X47486072Y68166743D02*
X48442377Y68459115D01*
X33580059Y62346710D02*
X28609740Y78603891D01*
X44349173Y81847381D02*
X43392869Y81555010D01*
X48150006Y69415418D02*
X48442377Y68459115D01*
X31253278Y76797873D02*
X30960907Y77754177D01*
X28609740Y78603890D02*
X45823224Y83866581D01*
X33580060Y62346710D02*
X28609740Y78603890D01*
X48150006Y69415419D02*
X48442377Y68459115D01*
X47486072Y68166743D02*
X48442377Y68459115D01*
X28609740Y78603891D02*
X45823225Y83866582D01*
X31917212Y78046547D02*
X30960907Y77754176D01*
X31253279Y76797872D02*
X30960907Y77754176D01*
X44349173Y81847381D02*
X44641545Y80891076D01*
X45823225Y83866582D02*
X50793544Y67609401D01*
X44349172Y81847381D02*
X43392869Y81555009D01*
X50793544Y67609401D02*
X33580059Y62346710D01*
X35054111Y64365911D02*
X36010415Y64658282D01*
X44349172Y81847381D02*
X44641545Y80891076D01*
%TO.C,S5*%
X44394493Y88766896D02*
X61607977Y94029587D01*
X66578297Y77772407D02*
X49364812Y72509716D01*
X60133926Y92010387D02*
X59177622Y91718016D01*
X60133925Y92010387D02*
X59177622Y91718015D01*
X63270825Y78329749D02*
X64227130Y78622121D01*
X63934759Y79578425D02*
X64227130Y78622121D01*
X47038032Y86960878D02*
X46745660Y87917182D01*
X50838865Y74528916D02*
X50546492Y75485222D01*
X49364813Y72509716D02*
X44394493Y88766896D01*
X63270825Y78329749D02*
X64227130Y78622121D01*
X60133926Y92010387D02*
X60426298Y91054082D01*
X47701965Y88209553D02*
X46745660Y87917182D01*
X50838864Y74528917D02*
X50546492Y75485222D01*
X63934759Y79578424D02*
X64227130Y78622121D01*
X60133925Y92010387D02*
X60426298Y91054082D01*
X50838865Y74528916D02*
X51795169Y74821288D01*
X61607977Y94029587D02*
X66578297Y77772407D01*
X44394493Y88766897D02*
X61607978Y94029588D01*
X49364812Y72509716D02*
X44394493Y88766897D01*
X66578297Y77772407D02*
X49364813Y72509716D01*
X47701965Y88209555D02*
X46745660Y87917183D01*
X47038031Y86960879D02*
X46745660Y87917183D01*
X50838864Y74528917D02*
X51795168Y74821288D01*
X61607978Y94029588D02*
X66578297Y77772407D01*
%TO.C,S27*%
X126242548Y79222999D02*
X127242547Y79222999D01*
X140242547Y93223000D02*
X140242547Y92223000D01*
X124242547Y77723000D02*
X124242547Y94723000D01*
X126242547Y79223000D02*
X126242547Y80223000D01*
X142242547Y94723000D02*
X142242547Y77723000D01*
X126242548Y79222999D02*
X126242547Y80223000D01*
X124242548Y77722999D02*
X124242547Y94722999D01*
X140242546Y93223000D02*
X139242547Y93222999D01*
X127242547Y93223000D02*
X126242547Y93223000D01*
X124242547Y94723000D02*
X142242547Y94723000D01*
X139242547Y79223000D02*
X140242547Y79223000D01*
X126242547Y79223000D02*
X127242547Y79223000D01*
X142242546Y94723000D02*
X142242547Y77723000D01*
X140242547Y80223000D02*
X140242547Y79223000D01*
X140242546Y93223000D02*
X140242547Y92222999D01*
X126242547Y92223000D02*
X126242547Y93223000D01*
X140242547Y93223000D02*
X139242547Y93223000D01*
X127242547Y93222998D02*
X126242547Y93222999D01*
X140242547Y80222999D02*
X140242547Y79223000D01*
X126242547Y92222999D02*
X126242547Y93222999D01*
X142242547Y77723000D02*
X124242548Y77722999D01*
X139242547Y79223000D02*
X140242547Y79223000D01*
X142242547Y77723000D02*
X124242547Y77723000D01*
X124242547Y94722999D02*
X142242546Y94723000D01*
%TO.C,S9*%
X83895082Y83517788D02*
X84068730Y82532981D01*
X68572278Y78277399D02*
X65620259Y95019130D01*
X86298817Y81403066D02*
X68572279Y78277398D01*
X68835155Y94062861D02*
X67850347Y93889214D01*
X86298817Y81403066D02*
X68572278Y78277399D01*
X68572279Y78277398D02*
X65620259Y95019129D01*
X70281422Y80101906D02*
X71266229Y80275554D01*
X83895081Y83517789D02*
X84068730Y82532981D01*
X83083922Y82359333D02*
X84068730Y82532981D01*
X70281422Y80101906D02*
X70107773Y81086714D01*
X81637655Y96320290D02*
X81811303Y95335482D01*
X68023995Y92904407D02*
X67850346Y93889215D01*
X70281421Y80101906D02*
X71266229Y80275555D01*
X70281421Y80101906D02*
X70107773Y81086714D01*
X81637654Y96320289D02*
X80652847Y96146640D01*
X81637654Y96320289D02*
X81811303Y95335481D01*
X83346797Y98144797D02*
X86298817Y81403066D01*
X68023995Y92904406D02*
X67850347Y93889214D01*
X65620259Y95019130D02*
X83346798Y98144797D01*
X83346798Y98144797D02*
X86298817Y81403066D01*
X83083922Y82359333D02*
X84068730Y82532981D01*
X68835154Y94062863D02*
X67850346Y93889215D01*
X65620259Y95019129D02*
X83346797Y98144797D01*
X81637655Y96320290D02*
X80652847Y96146641D01*
%TO.C,S13*%
X90023508Y72595404D02*
X89936353Y73591599D01*
X104611709Y89430914D02*
X106093357Y72495604D01*
X102974039Y73728429D02*
X103970234Y73815584D01*
X88161853Y70926800D02*
X86680205Y87862110D01*
X90023508Y72595404D02*
X91019703Y72682560D01*
X88890484Y85545934D02*
X88803328Y86542129D01*
X88890484Y85545935D02*
X88803328Y86542130D01*
X89799523Y86629283D02*
X88803328Y86542129D01*
X102750053Y87762310D02*
X102837210Y86766114D01*
X103883078Y74811779D02*
X103970234Y73815584D01*
X88161854Y70926799D02*
X86680205Y87862109D01*
X86680205Y87862109D02*
X104611708Y89430914D01*
X89799523Y86629285D02*
X88803328Y86542130D01*
X106093357Y72495604D02*
X88161853Y70926800D01*
X102750053Y87762310D02*
X101753859Y87675153D01*
X102750054Y87762310D02*
X101753859Y87675154D01*
X103883078Y74811778D02*
X103970234Y73815584D01*
X86680205Y87862110D02*
X104611709Y89430914D01*
X102750054Y87762310D02*
X102837209Y86766115D01*
X104611708Y89430914D02*
X106093357Y72495604D01*
X106093357Y72495604D02*
X88161854Y70926799D01*
X90023509Y72595403D02*
X89936353Y73591599D01*
X90023509Y72595403D02*
X91019703Y72682559D01*
X102974039Y73728429D02*
X103970234Y73815584D01*
%TO.C,S17*%
X103130062Y106366224D02*
X85198558Y104797420D01*
X101648413Y123301534D02*
X103130062Y106366224D01*
X87060213Y106466024D02*
X86973058Y107462219D01*
X83716910Y121732730D02*
X101648414Y123301534D01*
X100919783Y108682399D02*
X101006939Y107686204D01*
X85927189Y119416554D02*
X85840033Y120412749D01*
X100010744Y107599049D02*
X101006939Y107686204D01*
X86836228Y120499903D02*
X85840033Y120412749D01*
X99786759Y121632930D02*
X99873914Y120636735D01*
X85198558Y104797420D02*
X83716910Y121732730D01*
X100919783Y108682398D02*
X101006939Y107686204D01*
X99786758Y121632930D02*
X98790564Y121545773D01*
X87060214Y106466023D02*
X86973058Y107462219D01*
X99786758Y121632930D02*
X99873915Y120636734D01*
X86836228Y120499905D02*
X85840033Y120412750D01*
X100010744Y107599049D02*
X101006939Y107686204D01*
X101648414Y123301534D02*
X103130062Y106366224D01*
X99786759Y121632930D02*
X98790564Y121545774D01*
X87060213Y106466024D02*
X88056408Y106553180D01*
X85927189Y119416555D02*
X85840033Y120412750D01*
X87060214Y106466023D02*
X88056408Y106553179D01*
X83716910Y121732729D02*
X101648413Y123301534D01*
X103130062Y106366224D02*
X85198559Y104797419D01*
X85198559Y104797419D02*
X83716910Y121732729D01*
%TO.C,S31*%
X138192095Y57499937D02*
X137006236Y40541348D01*
X122056680Y56122130D02*
X122126437Y57119694D01*
X136092334Y56143104D02*
X135094770Y56212861D01*
X120235944Y58755554D02*
X138192096Y57499937D01*
X135185500Y43174771D02*
X135115743Y42177207D01*
X120235944Y58755553D02*
X138192095Y57499937D01*
X136092333Y56143104D02*
X136022577Y55145539D01*
X137006236Y40541348D02*
X119050084Y41796964D01*
X121149846Y43153798D02*
X122147410Y43084041D01*
X123124001Y57049938D02*
X122126437Y57119695D01*
X134118179Y42246964D02*
X135115743Y42177207D01*
X123124001Y57049936D02*
X122126437Y57119694D01*
X119050084Y41796964D02*
X120235944Y58755553D01*
X138192096Y57499937D02*
X137006236Y40541348D01*
X121149846Y43153798D02*
X121219603Y44151362D01*
X136092334Y56143104D02*
X136022577Y55145540D01*
X134118179Y42246964D02*
X135115743Y42177207D01*
X135185499Y43174770D02*
X135115743Y42177207D01*
X121149847Y43153797D02*
X121219603Y44151362D01*
X136092333Y56143104D02*
X135094770Y56212860D01*
X119050084Y41796965D02*
X120235944Y58755554D01*
X137006236Y40541348D02*
X119050084Y41796965D01*
X122056680Y56122131D02*
X122126437Y57119695D01*
X121149847Y43153797D02*
X122147410Y43084040D01*
%TO.C,S3*%
X68241144Y62072568D02*
X69197449Y62364940D01*
X52008351Y70703697D02*
X51715979Y71660001D01*
X66578296Y77772406D02*
X71548616Y61515226D01*
X55809184Y58271735D02*
X55516811Y59228041D01*
X65104245Y75753206D02*
X64147941Y75460835D01*
X54335132Y56252535D02*
X49364812Y72509715D01*
X54335131Y56252535D02*
X49364812Y72509716D01*
X49364812Y72509715D02*
X66578296Y77772406D01*
X49364812Y72509716D02*
X66578297Y77772407D01*
X66578297Y77772407D02*
X71548616Y61515226D01*
X52672284Y71952372D02*
X51715979Y71660001D01*
X65104244Y75753206D02*
X64147941Y75460834D01*
X65104245Y75753206D02*
X65396617Y74796901D01*
X55809183Y58271736D02*
X56765487Y58564107D01*
X68905078Y63321244D02*
X69197449Y62364940D01*
X52008350Y70703698D02*
X51715979Y71660002D01*
X65104244Y75753206D02*
X65396617Y74796901D01*
X68241144Y62072568D02*
X69197449Y62364940D01*
X68905078Y63321243D02*
X69197449Y62364940D01*
X55809183Y58271736D02*
X55516811Y59228041D01*
X52672284Y71952374D02*
X51715979Y71660002D01*
X71548616Y61515226D02*
X54335131Y56252535D01*
X55809184Y58271735D02*
X56765488Y58564107D01*
X71548616Y61515226D02*
X54335132Y56252535D01*
%TO.C,S23*%
X108177087Y110761017D02*
X108177087Y111761017D01*
X106177087Y96261017D02*
X106177087Y113261017D01*
X124177087Y96261017D02*
X106177087Y96261017D01*
X124177086Y113261017D02*
X124177087Y96261017D01*
X122177087Y98761017D02*
X122177087Y97761017D01*
X122177087Y111761017D02*
X122177087Y110761017D01*
X124177087Y113261017D02*
X124177087Y96261017D01*
X108177088Y97761016D02*
X108177087Y98761017D01*
X108177087Y97761017D02*
X109177087Y97761017D01*
X121177087Y97761017D02*
X122177087Y97761017D01*
X122177087Y98761016D02*
X122177087Y97761017D01*
X108177088Y97761016D02*
X109177087Y97761016D01*
X109177087Y111761017D02*
X108177087Y111761017D01*
X124177087Y96261017D02*
X106177088Y96261016D01*
X108177087Y110761016D02*
X108177087Y111761016D01*
X122177087Y111761017D02*
X121177087Y111761017D01*
X106177088Y96261016D02*
X106177087Y113261016D01*
X106177087Y113261016D02*
X124177086Y113261017D01*
X121177087Y97761017D02*
X122177087Y97761017D01*
X106177087Y113261017D02*
X124177087Y113261017D01*
X122177086Y111761017D02*
X121177087Y111761016D01*
X109177087Y111761015D02*
X108177087Y111761016D01*
X122177086Y111761017D02*
X122177087Y110761016D01*
X108177087Y97761017D02*
X108177087Y98761017D01*
%TO.C,S25*%
X126242548Y62222999D02*
X126242547Y63223000D01*
X126242548Y62222999D02*
X127242547Y62222999D01*
X124242547Y60723000D02*
X124242547Y77723000D01*
X124242547Y77723000D02*
X142242547Y77723000D01*
X142242547Y60723000D02*
X124242547Y60723000D01*
X126242547Y62223000D02*
X126242547Y63223000D01*
X140242547Y63223000D02*
X140242547Y62223000D01*
X127242547Y76222998D02*
X126242547Y76222999D01*
X140242547Y76223000D02*
X140242547Y75223000D01*
X139242547Y62223000D02*
X140242547Y62223000D01*
X124242548Y60722999D02*
X124242547Y77722999D01*
X126242547Y62223000D02*
X127242547Y62223000D01*
X142242546Y77723000D02*
X142242547Y60723000D01*
X140242547Y63222999D02*
X140242547Y62223000D01*
X126242547Y75223000D02*
X126242547Y76223000D01*
X139242547Y62223000D02*
X140242547Y62223000D01*
X140242547Y76223000D02*
X139242547Y76223000D01*
X140242546Y76223000D02*
X140242547Y75222999D01*
X126242547Y75222999D02*
X126242547Y76222999D01*
X142242547Y60723000D02*
X124242548Y60722999D01*
X142242547Y77723000D02*
X142242547Y60723000D01*
X140242546Y76223000D02*
X139242547Y76222999D01*
X127242547Y76223000D02*
X126242547Y76223000D01*
X124242547Y77722999D02*
X142242546Y77723000D01*
%TO.C,S19*%
X108177087Y76761016D02*
X108177087Y77761016D01*
X124177087Y62261017D02*
X106177088Y62261016D01*
X122177087Y64761017D02*
X122177087Y63761017D01*
X122177087Y77761017D02*
X121177087Y77761017D01*
X106177087Y79261017D02*
X124177087Y79261017D01*
X108177088Y63761016D02*
X108177087Y64761017D01*
X124177087Y79261017D02*
X124177087Y62261017D01*
X106177087Y62261017D02*
X106177087Y79261017D01*
X106177088Y62261016D02*
X106177087Y79261016D01*
X108177087Y63761017D02*
X108177087Y64761017D01*
X124177086Y79261017D02*
X124177087Y62261017D01*
X108177087Y76761017D02*
X108177087Y77761017D01*
X122177086Y77761017D02*
X121177087Y77761016D01*
X109177087Y77761015D02*
X108177087Y77761016D01*
X108177087Y63761017D02*
X109177087Y63761017D01*
X124177087Y62261017D02*
X106177087Y62261017D01*
X108177088Y63761016D02*
X109177087Y63761016D01*
X122177086Y77761017D02*
X122177087Y76761016D01*
X122177087Y64761016D02*
X122177087Y63761017D01*
X106177087Y79261016D02*
X124177086Y79261017D01*
X121177087Y63761017D02*
X122177087Y63761017D01*
X109177087Y77761017D02*
X108177087Y77761017D01*
X121177087Y63761017D02*
X122177087Y63761017D01*
X122177087Y77761017D02*
X122177087Y76761017D01*
%TD*%
M02*
