M48
; DRILL file {KiCad (6.0.4-0)} date 2022 June 10, Friday 10:13:33
; FORMAT={-:-/ absolute / metric / decimal}
; #@! TF.CreationDate,2022-06-10T10:13:33+02:00
; #@! TF.GenerationSoftware,Kicad,Pcbnew,(6.0.4-0)
; #@! TF.FileFunction,Plated,1,2,PTH
FMAT,2
METRIC
; #@! TA.AperFunction,Plated,PTH,ViaDrill
T1C0.400
; #@! TA.AperFunction,Plated,PTH,ComponentDrill
T2C0.400
; #@! TA.AperFunction,Plated,PTH,ComponentDrill
T3C1.092
; #@! TA.AperFunction,Plated,PTH,ComponentDrill
T4C1.100
; #@! TA.AperFunction,Plated,PTH,ComponentDrill
T5C1.270
; #@! TA.AperFunction,Plated,PTH,ComponentDrill
T6C1.300
; #@! TA.AperFunction,Plated,PTH,ComponentDrill
T7C2.200
%
G90
G05
T1
X153.43Y91.646
T2
X37.846Y119.888
X37.846Y117.348
X37.846Y114.808
X37.846Y112.268
X37.846Y109.728
X37.846Y107.188
X37.846Y104.648
X37.846Y102.108
X37.846Y99.568
X37.846Y97.028
X37.846Y94.488
X37.846Y91.948
X39.37Y119.888
X39.37Y117.348
X39.37Y114.808
X39.37Y112.268
X39.37Y109.728
X39.37Y107.188
X39.37Y104.648
X39.37Y102.108
X39.37Y99.568
X39.37Y97.028
X39.37Y94.488
X39.37Y91.948
T3
X149.924Y78.232
X151.924Y78.232
X153.924Y78.232
T4
X30.988Y119.888
X30.988Y117.348
X30.988Y114.808
X30.988Y112.268
X30.988Y109.728
X30.988Y107.188
X30.988Y104.648
X30.988Y102.108
X30.988Y99.568
X30.988Y97.028
X30.988Y94.488
X30.988Y91.948
X46.228Y119.888
X46.228Y117.348
X46.228Y114.808
X46.228Y112.268
X46.228Y109.728
X46.228Y107.188
X46.228Y104.648
X46.228Y102.108
X46.228Y99.568
X46.228Y97.028
X46.228Y94.488
X46.228Y91.948
T5
X36.031Y68.011
X41.427Y67.464
X45.594Y70.935
X51.816Y78.174
X56.786Y61.917
X57.211Y77.627
X61.379Y81.098
X62.182Y61.37
X66.349Y64.84
X68.743Y100.342
X71.695Y83.601
X74.032Y99.142
X74.647Y66.859
X76.984Y82.401
X78.591Y102.079
X79.936Y65.659
X81.543Y85.337
X84.495Y68.595
X88.774Y109.828
X90.255Y92.893
X91.737Y75.958
X93.938Y108.172
X95.419Y91.237
X96.901Y74.301
X98.736Y110.7
X100.217Y93.764
X101.699Y76.829
X110.177Y100.961
X110.177Y83.961
X110.177Y66.961
X115.177Y98.861
X115.177Y81.861
X115.177Y64.861
X120.177Y100.961
X120.177Y83.961
X120.177Y66.961
X123.368Y46.206
X128.21Y43.763
X128.243Y99.423
X128.243Y82.423
X128.243Y65.423
X133.243Y97.323
X133.243Y80.323
X133.243Y63.323
X133.344Y45.509
X138.243Y99.423
X138.243Y82.423
X138.243Y65.423
X142.318Y43.683
X146.362Y40.07
X151.774Y40.427
T6
X156.718Y63.956
X156.718Y57.456
T7
X84.536Y87.041
X103.251Y106.42
X103.916Y68.326
T0
M30
