M48
; DRILL file {KiCad (6.0.4-0)} date 2022 June 10, Friday 10:13:33
; FORMAT={-:-/ absolute / metric / decimal}
; #@! TF.CreationDate,2022-06-10T10:13:33+02:00
; #@! TF.GenerationSoftware,Kicad,Pcbnew,(6.0.4-0)
; #@! TF.FileFunction,NonPlated,1,2,NPTH
FMAT,2
METRIC
; #@! TA.AperFunction,NonPlated,NPTH,ComponentDrill
T1C0.900
; #@! TA.AperFunction,NonPlated,NPTH,ComponentDrill
T2C1.702
; #@! TA.AperFunction,NonPlated,NPTH,ComponentDrill
T3C3.000
; #@! TA.AperFunction,NonPlated,NPTH,ComponentDrill
T4C3.429
%
G90
G05
T1
X157.269Y93.158
X157.269Y90.158
T2
X34.442Y71.499
X44.961Y74.715
X50.227Y81.662
X55.197Y65.404
X60.746Y84.878
X65.716Y68.621
X67.591Y103.998
X70.543Y87.256
X73.495Y70.514
X78.424Y105.908
X81.376Y89.166
X84.328Y72.424
X87.944Y113.57
X89.426Y96.635
X90.908Y79.7
X98.903Y114.529
X100.384Y97.594
X101.866Y80.658
X109.677Y104.761
X109.677Y87.761
X109.677Y70.761
X120.677Y104.761
X120.677Y87.761
X120.677Y70.761
X123.134Y50.032
X127.743Y103.223
X127.743Y86.223
X127.743Y69.223
X134.108Y49.265
X138.743Y103.223
X138.743Y86.223
X138.743Y69.223
X143.083Y47.439
X153.484Y43.858
T3
X33.824Y75.231
X37.962Y78.797
X43.387Y78.155
X49.608Y85.394
X53.747Y88.96
X54.579Y69.137
X58.717Y72.702
X59.172Y88.318
X64.142Y72.06
X67.432Y107.778
X70.384Y91.036
X71.974Y110.812
X73.336Y74.294
X74.926Y94.071
X77.28Y109.514
X77.878Y77.329
X80.232Y92.772
X83.184Y76.031
X88.116Y117.349
X89.597Y100.414
X91.079Y83.479
X92.905Y119.977
X94.387Y103.042
X95.868Y86.106
X98.078Y118.221
X99.559Y101.286
X101.041Y84.35
X110.177Y108.511
X110.177Y91.511
X110.177Y74.511
X115.177Y110.711
X115.177Y93.711
X115.177Y76.711
X120.177Y108.511
X120.177Y91.511
X120.177Y74.511
X123.895Y53.738
X128.243Y106.973
X128.243Y89.973
X128.243Y72.973
X129.036Y55.584
X133.243Y109.173
X133.243Y92.173
X133.243Y75.173
X133.87Y53.041
X138.243Y106.973
X138.243Y89.973
X138.243Y72.973
X144.777Y50.822
X150.22Y51.274
X154.232Y47.566
T4
X39.702Y73.107
X55.486Y83.27
X60.457Y67.012
X73.008Y104.953
X75.96Y88.211
X78.912Y71.469
X93.423Y114.049
X94.905Y97.114
X96.387Y80.179
X115.177Y104.761
X115.177Y87.761
X115.177Y70.761
X128.621Y49.648
X133.243Y103.223
X133.243Y86.223
X133.243Y69.223
X148.283Y45.648
T0
M30
