%FSLAX45Y45*%
G04 Gerber Fmt 4.5, Leading zero omitted, Abs format (unit mm)*
G04 Created by KiCad (PCBNEW (6.0.4-0)) date 2022-06-10 10:13:33*
%MOMM*%
%LPD*%
G01*
G04 APERTURE LIST*
%TA.AperFunction,Profile*%
%ADD10C,0.150000*%
%TD*%
%ADD11C,0.200000*%
%ADD12C,0.090000*%
%ADD13C,0.170180*%
%ADD14C,0.300000*%
%ADD15C,0.342900*%
G04 APERTURE END LIST*
D10*
X13637800Y12447790D02*
X2904845Y12436755D01*
X2667000Y5892800D02*
X2676245Y12208155D01*
X16002000Y10109200D02*
G75*
G03*
X13637800Y12447790I-2364200J-25750D01*
G01*
X2667000Y5892800D02*
G75*
G03*
X5029200Y3379408I2415551J-96503D01*
G01*
X15742673Y3376991D02*
G75*
G03*
X16000102Y3632200I-3153J260619D01*
G01*
X16000102Y3632200D02*
X16002000Y10109200D01*
X15742673Y3376992D02*
X5029200Y3379408D01*
X2904845Y12436755D02*
G75*
G03*
X2676245Y12208155I0J-228600D01*
G01*
D11*
D12*
X15681900Y9360800D02*
X15771900Y9270800D01*
X15771900Y9360800D02*
X15681900Y9270800D01*
X15681900Y9060800D02*
X15771900Y8970800D01*
X15771900Y9060800D02*
X15681900Y8970800D01*
D13*
X3529287Y7149860D02*
G75*
G03*
X3529287Y7149860I-85090J0D01*
G01*
X4581222Y7471469D02*
G75*
G03*
X4581222Y7471469I-85090J0D01*
G01*
X5107762Y8166161D02*
G75*
G03*
X5107762Y8166161I-85090J0D01*
G01*
X5604794Y6540443D02*
G75*
G03*
X5604794Y6540443I-85090J0D01*
G01*
X6159697Y8487770D02*
G75*
G03*
X6159697Y8487770I-85090J0D01*
G01*
X6656729Y6862051D02*
G75*
G03*
X6656729Y6862051I-85090J0D01*
G01*
X6844198Y10399777D02*
G75*
G03*
X6844198Y10399777I-85090J0D01*
G01*
X7139399Y8725603D02*
G75*
G03*
X7139399Y8725603I-85090J0D01*
G01*
X7434601Y7051430D02*
G75*
G03*
X7434601Y7051430I-85090J0D01*
G01*
X7927486Y10590790D02*
G75*
G03*
X7927486Y10590790I-85090J0D01*
G01*
X8222688Y8916616D02*
G75*
G03*
X8222688Y8916616I-85090J0D01*
G01*
X8517890Y7242443D02*
G75*
G03*
X8517890Y7242443I-85090J0D01*
G01*
X8879532Y11357012D02*
G75*
G03*
X8879532Y11357012I-85090J0D01*
G01*
X9027696Y9663481D02*
G75*
G03*
X9027696Y9663481I-85090J0D01*
G01*
X9175861Y7969950D02*
G75*
G03*
X9175861Y7969950I-85090J0D01*
G01*
X9975346Y11452883D02*
G75*
G03*
X9975346Y11452883I-85090J0D01*
G01*
X10123510Y9759352D02*
G75*
G03*
X10123510Y9759352I-85090J0D01*
G01*
X10271675Y8065821D02*
G75*
G03*
X10271675Y8065821I-85090J0D01*
G01*
X11052799Y10476102D02*
G75*
G03*
X11052799Y10476102I-85090J0D01*
G01*
X11052799Y8776102D02*
G75*
G03*
X11052799Y8776102I-85090J0D01*
G01*
X11052799Y7076102D02*
G75*
G03*
X11052799Y7076102I-85090J0D01*
G01*
X12152799Y10476102D02*
G75*
G03*
X12152799Y10476102I-85090J0D01*
G01*
X12152799Y8776102D02*
G75*
G03*
X12152799Y8776102I-85090J0D01*
G01*
X12152799Y7076102D02*
G75*
G03*
X12152799Y7076102I-85090J0D01*
G01*
X12398539Y5003211D02*
G75*
G03*
X12398539Y5003211I-85090J0D01*
G01*
X12859345Y10322300D02*
G75*
G03*
X12859345Y10322300I-85090J0D01*
G01*
X12859345Y8622300D02*
G75*
G03*
X12859345Y8622300I-85090J0D01*
G01*
X12859345Y6922300D02*
G75*
G03*
X12859345Y6922300I-85090J0D01*
G01*
X13495859Y4926479D02*
G75*
G03*
X13495859Y4926479I-85090J0D01*
G01*
X13959345Y10322300D02*
G75*
G03*
X13959345Y10322300I-85090J0D01*
G01*
X13959345Y8622300D02*
G75*
G03*
X13959345Y8622300I-85090J0D01*
G01*
X13959345Y6922300D02*
G75*
G03*
X13959345Y6922300I-85090J0D01*
G01*
X14393378Y4743877D02*
G75*
G03*
X14393378Y4743877I-85090J0D01*
G01*
X15433448Y4385752D02*
G75*
G03*
X15433448Y4385752I-85090J0D01*
G01*
D14*
X3382372Y7673093D02*
X3382372Y7373093D01*
X3232372Y7523093D02*
X3532372Y7523093D01*
X3796203Y8029666D02*
X3796203Y7729666D01*
X3646203Y7879666D02*
X3946203Y7879666D01*
X4338677Y7965465D02*
X4338677Y7665465D01*
X4188677Y7815465D02*
X4488677Y7815465D01*
X4960848Y8689394D02*
X4960848Y8389394D01*
X4810848Y8539394D02*
X5110848Y8539394D01*
X5374678Y9045967D02*
X5374678Y8745967D01*
X5224678Y8895967D02*
X5524678Y8895967D01*
X5457880Y7063675D02*
X5457880Y6763675D01*
X5307880Y6913675D02*
X5607880Y6913675D01*
X5871710Y7420248D02*
X5871710Y7120248D01*
X5721710Y7270248D02*
X6021710Y7270248D01*
X5917152Y8981765D02*
X5917152Y8681765D01*
X5767152Y8831765D02*
X6067152Y8831765D01*
X6414184Y7356047D02*
X6414184Y7056047D01*
X6264184Y7206047D02*
X6564184Y7206047D01*
X6743230Y10927762D02*
X6743230Y10627762D01*
X6593230Y10777762D02*
X6893230Y10777762D01*
X7038432Y9253589D02*
X7038432Y8953589D01*
X6888432Y9103589D02*
X7188432Y9103589D01*
X7197431Y11231244D02*
X7197431Y10931244D01*
X7047431Y11081244D02*
X7347431Y11081244D01*
X7333634Y7579415D02*
X7333634Y7279415D01*
X7183634Y7429415D02*
X7483634Y7429415D01*
X7492633Y9557070D02*
X7492633Y9257070D01*
X7342633Y9407070D02*
X7642633Y9407070D01*
X7728038Y11101410D02*
X7728038Y10801410D01*
X7578038Y10951410D02*
X7878038Y10951410D01*
X7787835Y7882897D02*
X7787835Y7582897D01*
X7637835Y7732897D02*
X7937835Y7732897D01*
X8023240Y9427237D02*
X8023240Y9127237D01*
X7873240Y9277237D02*
X8173240Y9277237D01*
X8318441Y7753063D02*
X8318441Y7453063D01*
X8168441Y7603063D02*
X8468442Y7603063D01*
X8811568Y11884943D02*
X8811568Y11584943D01*
X8661568Y11734943D02*
X8961568Y11734943D01*
X8959733Y10191412D02*
X8959733Y9891412D01*
X8809733Y10041412D02*
X9109733Y10041412D01*
X9107897Y8497881D02*
X9107897Y8197881D01*
X8957897Y8347881D02*
X9257897Y8347881D01*
X9290491Y12147683D02*
X9290491Y11847683D01*
X9140491Y11997683D02*
X9440491Y11997683D01*
X9438656Y10454153D02*
X9438656Y10154153D01*
X9288656Y10304153D02*
X9588656Y10304153D01*
X9586820Y8760622D02*
X9586820Y8460622D01*
X9436820Y8610622D02*
X9736820Y8610622D01*
X9807763Y11972098D02*
X9807763Y11672098D01*
X9657763Y11822098D02*
X9957763Y11822098D01*
X9955927Y10278568D02*
X9955927Y9978568D01*
X9805927Y10128568D02*
X10105927Y10128568D01*
X10104092Y8585037D02*
X10104092Y8285036D01*
X9954092Y8435037D02*
X10254092Y8435037D01*
X11017709Y11001102D02*
X11017709Y10701102D01*
X10867709Y10851102D02*
X11167709Y10851102D01*
X11017709Y9301102D02*
X11017709Y9001102D01*
X10867709Y9151102D02*
X11167709Y9151102D01*
X11017709Y7601102D02*
X11017709Y7301102D01*
X10867709Y7451102D02*
X11167709Y7451102D01*
X11517709Y11221102D02*
X11517709Y10921102D01*
X11367709Y11071102D02*
X11667709Y11071102D01*
X11517709Y9521102D02*
X11517709Y9221102D01*
X11367709Y9371102D02*
X11667709Y9371102D01*
X11517709Y7821102D02*
X11517709Y7521102D01*
X11367709Y7671102D02*
X11667709Y7671102D01*
X12017709Y11001102D02*
X12017709Y10701102D01*
X11867709Y10851102D02*
X12167709Y10851102D01*
X12017709Y9301102D02*
X12017709Y9001102D01*
X11867709Y9151102D02*
X12167709Y9151102D01*
X12017709Y7601102D02*
X12017709Y7301102D01*
X11867709Y7451102D02*
X12167709Y7451102D01*
X12389486Y5523810D02*
X12389486Y5223810D01*
X12239486Y5373810D02*
X12539486Y5373810D01*
X12824255Y10847300D02*
X12824255Y10547300D01*
X12674255Y10697300D02*
X12974255Y10697300D01*
X12824255Y9147300D02*
X12824255Y8847300D01*
X12674255Y8997300D02*
X12974255Y8997300D01*
X12824255Y7447300D02*
X12824255Y7147300D01*
X12674255Y7297300D02*
X12974255Y7297300D01*
X12903614Y5708396D02*
X12903614Y5408396D01*
X12753614Y5558396D02*
X13053614Y5558396D01*
X13324255Y11067300D02*
X13324255Y10767300D01*
X13174255Y10917300D02*
X13474255Y10917300D01*
X13324255Y9367300D02*
X13324255Y9067300D01*
X13174255Y9217300D02*
X13474255Y9217300D01*
X13324255Y7667300D02*
X13324255Y7367300D01*
X13174255Y7517300D02*
X13474255Y7517300D01*
X13387050Y5454053D02*
X13387050Y5154053D01*
X13237050Y5304053D02*
X13537050Y5304053D01*
X13824255Y10847300D02*
X13824255Y10547300D01*
X13674255Y10697300D02*
X13974255Y10697300D01*
X13824255Y9147300D02*
X13824255Y8847300D01*
X13674255Y8997300D02*
X13974255Y8997300D01*
X13824255Y7447300D02*
X13824255Y7147300D01*
X13674255Y7297300D02*
X13974255Y7297300D01*
X14477652Y5232168D02*
X14477652Y4932168D01*
X14327652Y5082168D02*
X14627652Y5082168D01*
X15022036Y5277398D02*
X15022036Y4977398D01*
X14872036Y5127398D02*
X15172036Y5127398D01*
X15423171Y4906600D02*
X15423171Y4606600D01*
X15273171Y4756600D02*
X15573171Y4756600D01*
D15*
X4091399Y7189430D02*
X4091399Y7431899D01*
X3848930Y7431899D01*
X3848930Y7189430D01*
X4091399Y7189430D01*
X5669874Y8205731D02*
X5669874Y8448200D01*
X5427405Y8448200D01*
X5427405Y8205731D01*
X5669874Y8205731D01*
X6166906Y6580012D02*
X6166906Y6822482D01*
X5924437Y6822482D01*
X5924437Y6580012D01*
X6166906Y6580012D01*
X7421986Y10374048D02*
X7421986Y10616518D01*
X7179517Y10616518D01*
X7179517Y10374048D01*
X7421986Y10374048D01*
X7717188Y8699875D02*
X7717188Y8942344D01*
X7474719Y8942344D01*
X7474719Y8699875D01*
X7717188Y8699875D01*
X8012390Y7025702D02*
X8012390Y7268171D01*
X7769921Y7268171D01*
X7769921Y7025702D01*
X8012390Y7025702D01*
X9463583Y11283713D02*
X9463583Y11526182D01*
X9221114Y11526182D01*
X9221114Y11283713D01*
X9463583Y11283713D01*
X9611748Y9590182D02*
X9611748Y9832651D01*
X9369279Y9832651D01*
X9369279Y9590182D01*
X9611748Y9590182D01*
X9759913Y7896651D02*
X9759913Y8139120D01*
X9517444Y8139120D01*
X9517444Y7896651D01*
X9759913Y7896651D01*
X11638943Y10354867D02*
X11638943Y10597336D01*
X11396474Y10597336D01*
X11396474Y10354867D01*
X11638943Y10354867D01*
X11638943Y8654867D02*
X11638943Y8897336D01*
X11396474Y8897336D01*
X11396474Y8654867D01*
X11638943Y8654867D01*
X11638943Y6954867D02*
X11638943Y7197336D01*
X11396474Y7197336D01*
X11396474Y6954867D01*
X11638943Y6954867D01*
X12983344Y4843611D02*
X12983344Y5086080D01*
X12740874Y5086080D01*
X12740874Y4843611D01*
X12983344Y4843611D01*
X13445489Y10201065D02*
X13445489Y10443535D01*
X13203020Y10443535D01*
X13203020Y10201065D01*
X13445489Y10201065D01*
X13445489Y8501065D02*
X13445489Y8743535D01*
X13203020Y8743535D01*
X13203020Y8501065D01*
X13445489Y8501065D01*
X13445489Y6801065D02*
X13445489Y7043535D01*
X13203020Y7043535D01*
X13203020Y6801065D01*
X13445489Y6801065D01*
X14949558Y4443580D02*
X14949558Y4686049D01*
X14707089Y4686049D01*
X14707089Y4443580D01*
X14949558Y4443580D01*
D11*
X2915192Y3059016D02*
X2915192Y3259016D01*
X2962811Y3259016D01*
X2991383Y3249492D01*
X3010430Y3230444D01*
X3019954Y3211397D01*
X3029478Y3173301D01*
X3029478Y3144730D01*
X3019954Y3106635D01*
X3010430Y3087587D01*
X2991383Y3068539D01*
X2962811Y3059016D01*
X2915192Y3059016D01*
X3115192Y3059016D02*
X3115192Y3192349D01*
X3115192Y3154254D02*
X3124716Y3173301D01*
X3134240Y3182825D01*
X3153287Y3192349D01*
X3172335Y3192349D01*
X3239002Y3059016D02*
X3239002Y3192349D01*
X3239002Y3259016D02*
X3229478Y3249492D01*
X3239002Y3239968D01*
X3248526Y3249492D01*
X3239002Y3259016D01*
X3239002Y3239968D01*
X3362811Y3059016D02*
X3343764Y3068539D01*
X3334240Y3087587D01*
X3334240Y3259016D01*
X3467573Y3059016D02*
X3448526Y3068539D01*
X3439002Y3087587D01*
X3439002Y3259016D01*
X3696145Y3059016D02*
X3696145Y3259016D01*
X3762811Y3116158D01*
X3829478Y3259016D01*
X3829478Y3059016D01*
X4010430Y3059016D02*
X4010430Y3163778D01*
X4000907Y3182825D01*
X3981859Y3192349D01*
X3943764Y3192349D01*
X3924716Y3182825D01*
X4010430Y3068539D02*
X3991383Y3059016D01*
X3943764Y3059016D01*
X3924716Y3068539D01*
X3915192Y3087587D01*
X3915192Y3106635D01*
X3924716Y3125682D01*
X3943764Y3135206D01*
X3991383Y3135206D01*
X4010430Y3144730D01*
X4105668Y3192349D02*
X4105668Y2992349D01*
X4105668Y3182825D02*
X4124716Y3192349D01*
X4162811Y3192349D01*
X4181859Y3182825D01*
X4191383Y3173301D01*
X4200907Y3154254D01*
X4200907Y3097111D01*
X4191383Y3078063D01*
X4181859Y3068539D01*
X4162811Y3059016D01*
X4124716Y3059016D01*
X4105668Y3068539D01*
X4286621Y3078063D02*
X4296145Y3068539D01*
X4286621Y3059016D01*
X4277097Y3068539D01*
X4286621Y3078063D01*
X4286621Y3059016D01*
X4286621Y3182825D02*
X4296145Y3173301D01*
X4286621Y3163778D01*
X4277097Y3173301D01*
X4286621Y3182825D01*
X4286621Y3163778D01*
D12*
X2567573Y2774492D02*
X2657573Y2684492D01*
X2657573Y2774492D02*
X2567573Y2684492D01*
D11*
X2953287Y2839016D02*
X2972335Y2839016D01*
X2991383Y2829492D01*
X3000907Y2819968D01*
X3010430Y2800920D01*
X3019954Y2762825D01*
X3019954Y2715206D01*
X3010430Y2677111D01*
X3000907Y2658063D01*
X2991383Y2648540D01*
X2972335Y2639016D01*
X2953287Y2639016D01*
X2934240Y2648540D01*
X2924716Y2658063D01*
X2915192Y2677111D01*
X2905668Y2715206D01*
X2905668Y2762825D01*
X2915192Y2800920D01*
X2924716Y2819968D01*
X2934240Y2829492D01*
X2953287Y2839016D01*
X3105668Y2658063D02*
X3115192Y2648540D01*
X3105668Y2639016D01*
X3096145Y2648540D01*
X3105668Y2658063D01*
X3105668Y2639016D01*
X3210430Y2639016D02*
X3248526Y2639016D01*
X3267573Y2648540D01*
X3277097Y2658063D01*
X3296145Y2686635D01*
X3305668Y2724730D01*
X3305668Y2800920D01*
X3296145Y2819968D01*
X3286621Y2829492D01*
X3267573Y2839016D01*
X3229478Y2839016D01*
X3210430Y2829492D01*
X3200907Y2819968D01*
X3191383Y2800920D01*
X3191383Y2753301D01*
X3200907Y2734254D01*
X3210430Y2724730D01*
X3229478Y2715206D01*
X3267573Y2715206D01*
X3286621Y2724730D01*
X3296145Y2734254D01*
X3305668Y2753301D01*
X3429478Y2839016D02*
X3448526Y2839016D01*
X3467573Y2829492D01*
X3477097Y2819968D01*
X3486621Y2800920D01*
X3496145Y2762825D01*
X3496145Y2715206D01*
X3486621Y2677111D01*
X3477097Y2658063D01*
X3467573Y2648540D01*
X3448526Y2639016D01*
X3429478Y2639016D01*
X3410430Y2648540D01*
X3400907Y2658063D01*
X3391383Y2677111D01*
X3381859Y2715206D01*
X3381859Y2762825D01*
X3391383Y2800920D01*
X3400907Y2819968D01*
X3410430Y2829492D01*
X3429478Y2839016D01*
X3619954Y2839016D02*
X3639002Y2839016D01*
X3658049Y2829492D01*
X3667573Y2819968D01*
X3677097Y2800920D01*
X3686621Y2762825D01*
X3686621Y2715206D01*
X3677097Y2677111D01*
X3667573Y2658063D01*
X3658049Y2648540D01*
X3639002Y2639016D01*
X3619954Y2639016D01*
X3600907Y2648540D01*
X3591383Y2658063D01*
X3581859Y2677111D01*
X3572335Y2715206D01*
X3572335Y2762825D01*
X3581859Y2800920D01*
X3591383Y2819968D01*
X3600907Y2829492D01*
X3619954Y2839016D01*
X3772335Y2639016D02*
X3772335Y2772349D01*
X3772335Y2753301D02*
X3781859Y2762825D01*
X3800907Y2772349D01*
X3829478Y2772349D01*
X3848526Y2762825D01*
X3858049Y2743778D01*
X3858049Y2639016D01*
X3858049Y2743778D02*
X3867573Y2762825D01*
X3886621Y2772349D01*
X3915192Y2772349D01*
X3934240Y2762825D01*
X3943764Y2743778D01*
X3943764Y2639016D01*
X4039002Y2639016D02*
X4039002Y2772349D01*
X4039002Y2753301D02*
X4048526Y2762825D01*
X4067573Y2772349D01*
X4096145Y2772349D01*
X4115192Y2762825D01*
X4124716Y2743778D01*
X4124716Y2639016D01*
X4124716Y2743778D02*
X4134240Y2762825D01*
X4153287Y2772349D01*
X4181859Y2772349D01*
X4200907Y2762825D01*
X4210430Y2743778D01*
X4210430Y2639016D01*
X4600907Y2848539D02*
X4429478Y2591397D01*
X4858049Y2839016D02*
X4877097Y2839016D01*
X4896145Y2829492D01*
X4905669Y2819968D01*
X4915192Y2800920D01*
X4924716Y2762825D01*
X4924716Y2715206D01*
X4915192Y2677111D01*
X4905669Y2658063D01*
X4896145Y2648540D01*
X4877097Y2639016D01*
X4858049Y2639016D01*
X4839002Y2648540D01*
X4829478Y2658063D01*
X4819954Y2677111D01*
X4810430Y2715206D01*
X4810430Y2762825D01*
X4819954Y2800920D01*
X4829478Y2819968D01*
X4839002Y2829492D01*
X4858049Y2839016D01*
X5010430Y2658063D02*
X5019954Y2648540D01*
X5010430Y2639016D01*
X5000907Y2648540D01*
X5010430Y2658063D01*
X5010430Y2639016D01*
X5143764Y2839016D02*
X5162811Y2839016D01*
X5181859Y2829492D01*
X5191383Y2819968D01*
X5200907Y2800920D01*
X5210430Y2762825D01*
X5210430Y2715206D01*
X5200907Y2677111D01*
X5191383Y2658063D01*
X5181859Y2648540D01*
X5162811Y2639016D01*
X5143764Y2639016D01*
X5124716Y2648540D01*
X5115192Y2658063D01*
X5105669Y2677111D01*
X5096145Y2715206D01*
X5096145Y2762825D01*
X5105669Y2800920D01*
X5115192Y2819968D01*
X5124716Y2829492D01*
X5143764Y2839016D01*
X5277097Y2839016D02*
X5400907Y2839016D01*
X5334240Y2762825D01*
X5362811Y2762825D01*
X5381859Y2753301D01*
X5391383Y2743778D01*
X5400907Y2724730D01*
X5400907Y2677111D01*
X5391383Y2658063D01*
X5381859Y2648540D01*
X5362811Y2639016D01*
X5305669Y2639016D01*
X5286621Y2648540D01*
X5277097Y2658063D01*
X5581859Y2839016D02*
X5486621Y2839016D01*
X5477097Y2743778D01*
X5486621Y2753301D01*
X5505669Y2762825D01*
X5553288Y2762825D01*
X5572335Y2753301D01*
X5581859Y2743778D01*
X5591383Y2724730D01*
X5591383Y2677111D01*
X5581859Y2658063D01*
X5572335Y2648540D01*
X5553288Y2639016D01*
X5505669Y2639016D01*
X5486621Y2648540D01*
X5477097Y2658063D01*
X5762811Y2772349D02*
X5762811Y2639016D01*
X5715192Y2848539D02*
X5667573Y2705682D01*
X5791383Y2705682D01*
X5858049Y2839016D02*
X5858049Y2800920D01*
X5934240Y2839016D02*
X5934240Y2800920D01*
X6229478Y2562825D02*
X6219954Y2572349D01*
X6200907Y2600920D01*
X6191383Y2619968D01*
X6181859Y2648540D01*
X6172335Y2696159D01*
X6172335Y2734254D01*
X6181859Y2781873D01*
X6191383Y2810444D01*
X6200907Y2829492D01*
X6219954Y2858063D01*
X6229478Y2867587D01*
X6296145Y2819968D02*
X6305668Y2829492D01*
X6324716Y2839016D01*
X6372335Y2839016D01*
X6391383Y2829492D01*
X6400907Y2819968D01*
X6410430Y2800920D01*
X6410430Y2781873D01*
X6400907Y2753301D01*
X6286621Y2639016D01*
X6410430Y2639016D01*
X6648526Y2639016D02*
X6648526Y2839016D01*
X6734240Y2639016D02*
X6734240Y2743778D01*
X6724716Y2762825D01*
X6705668Y2772349D01*
X6677097Y2772349D01*
X6658049Y2762825D01*
X6648526Y2753301D01*
X6858049Y2639016D02*
X6839002Y2648540D01*
X6829478Y2658063D01*
X6819954Y2677111D01*
X6819954Y2734254D01*
X6829478Y2753301D01*
X6839002Y2762825D01*
X6858049Y2772349D01*
X6886621Y2772349D01*
X6905668Y2762825D01*
X6915192Y2753301D01*
X6924716Y2734254D01*
X6924716Y2677111D01*
X6915192Y2658063D01*
X6905668Y2648540D01*
X6886621Y2639016D01*
X6858049Y2639016D01*
X7039002Y2639016D02*
X7019954Y2648540D01*
X7010430Y2667587D01*
X7010430Y2839016D01*
X7191383Y2648540D02*
X7172335Y2639016D01*
X7134240Y2639016D01*
X7115192Y2648540D01*
X7105668Y2667587D01*
X7105668Y2743778D01*
X7115192Y2762825D01*
X7134240Y2772349D01*
X7172335Y2772349D01*
X7191383Y2762825D01*
X7200907Y2743778D01*
X7200907Y2724730D01*
X7105668Y2705682D01*
X7277097Y2648540D02*
X7296145Y2639016D01*
X7334240Y2639016D01*
X7353287Y2648540D01*
X7362811Y2667587D01*
X7362811Y2677111D01*
X7353287Y2696159D01*
X7334240Y2705682D01*
X7305668Y2705682D01*
X7286621Y2715206D01*
X7277097Y2734254D01*
X7277097Y2743778D01*
X7286621Y2762825D01*
X7305668Y2772349D01*
X7334240Y2772349D01*
X7353287Y2762825D01*
X7429478Y2562825D02*
X7439002Y2572349D01*
X7458049Y2600920D01*
X7467573Y2619968D01*
X7477097Y2648540D01*
X7486621Y2696159D01*
X7486621Y2734254D01*
X7477097Y2781873D01*
X7467573Y2810444D01*
X7458049Y2829492D01*
X7439002Y2858063D01*
X7429478Y2867587D01*
X7791383Y2562825D02*
X7781859Y2572349D01*
X7762811Y2600920D01*
X7753287Y2619968D01*
X7743764Y2648540D01*
X7734240Y2696159D01*
X7734240Y2734254D01*
X7743764Y2781873D01*
X7753287Y2810444D01*
X7762811Y2829492D01*
X7781859Y2858063D01*
X7791383Y2867587D01*
X7867573Y2772349D02*
X7867573Y2639016D01*
X7867573Y2753301D02*
X7877097Y2762825D01*
X7896145Y2772349D01*
X7924716Y2772349D01*
X7943764Y2762825D01*
X7953287Y2743778D01*
X7953287Y2639016D01*
X8077097Y2639016D02*
X8058049Y2648540D01*
X8048526Y2658063D01*
X8039002Y2677111D01*
X8039002Y2734254D01*
X8048526Y2753301D01*
X8058049Y2762825D01*
X8077097Y2772349D01*
X8105668Y2772349D01*
X8124716Y2762825D01*
X8134240Y2753301D01*
X8143764Y2734254D01*
X8143764Y2677111D01*
X8134240Y2658063D01*
X8124716Y2648540D01*
X8105668Y2639016D01*
X8077097Y2639016D01*
X8200907Y2772349D02*
X8277097Y2772349D01*
X8229478Y2839016D02*
X8229478Y2667587D01*
X8239002Y2648540D01*
X8258049Y2639016D01*
X8277097Y2639016D01*
X8496145Y2772349D02*
X8496145Y2572349D01*
X8496145Y2762825D02*
X8515192Y2772349D01*
X8553288Y2772349D01*
X8572335Y2762825D01*
X8581859Y2753301D01*
X8591383Y2734254D01*
X8591383Y2677111D01*
X8581859Y2658063D01*
X8572335Y2648540D01*
X8553288Y2639016D01*
X8515192Y2639016D01*
X8496145Y2648540D01*
X8705669Y2639016D02*
X8686621Y2648540D01*
X8677097Y2667587D01*
X8677097Y2839016D01*
X8867573Y2639016D02*
X8867573Y2743778D01*
X8858049Y2762825D01*
X8839002Y2772349D01*
X8800907Y2772349D01*
X8781859Y2762825D01*
X8867573Y2648540D02*
X8848526Y2639016D01*
X8800907Y2639016D01*
X8781859Y2648540D01*
X8772335Y2667587D01*
X8772335Y2686635D01*
X8781859Y2705682D01*
X8800907Y2715206D01*
X8848526Y2715206D01*
X8867573Y2724730D01*
X8934240Y2772349D02*
X9010430Y2772349D01*
X8962811Y2839016D02*
X8962811Y2667587D01*
X8972335Y2648540D01*
X8991383Y2639016D01*
X9010430Y2639016D01*
X9153288Y2648540D02*
X9134240Y2639016D01*
X9096145Y2639016D01*
X9077097Y2648540D01*
X9067573Y2667587D01*
X9067573Y2743778D01*
X9077097Y2762825D01*
X9096145Y2772349D01*
X9134240Y2772349D01*
X9153288Y2762825D01*
X9162811Y2743778D01*
X9162811Y2724730D01*
X9067573Y2705682D01*
X9334240Y2639016D02*
X9334240Y2839016D01*
X9334240Y2648540D02*
X9315192Y2639016D01*
X9277097Y2639016D01*
X9258049Y2648540D01*
X9248526Y2658063D01*
X9239002Y2677111D01*
X9239002Y2734254D01*
X9248526Y2753301D01*
X9258049Y2762825D01*
X9277097Y2772349D01*
X9315192Y2772349D01*
X9334240Y2762825D01*
X9410430Y2562825D02*
X9419954Y2572349D01*
X9439002Y2600920D01*
X9448526Y2619968D01*
X9458049Y2648540D01*
X9467573Y2696159D01*
X9467573Y2734254D01*
X9458049Y2781873D01*
X9448526Y2810444D01*
X9439002Y2829492D01*
X9419954Y2858063D01*
X9410430Y2867587D01*
D13*
X2657573Y2465492D02*
G75*
G03*
X2657573Y2465492I-85090J0D01*
G01*
D11*
X3019954Y2375016D02*
X2905668Y2375016D01*
X2962811Y2375016D02*
X2962811Y2575016D01*
X2943764Y2546444D01*
X2924716Y2527397D01*
X2905668Y2517873D01*
X3105668Y2394063D02*
X3115192Y2384540D01*
X3105668Y2375016D01*
X3096145Y2384540D01*
X3105668Y2394063D01*
X3105668Y2375016D01*
X3181859Y2575016D02*
X3315192Y2575016D01*
X3229478Y2375016D01*
X3429478Y2575016D02*
X3448526Y2575016D01*
X3467573Y2565492D01*
X3477097Y2555968D01*
X3486621Y2536920D01*
X3496145Y2498825D01*
X3496145Y2451206D01*
X3486621Y2413111D01*
X3477097Y2394063D01*
X3467573Y2384540D01*
X3448526Y2375016D01*
X3429478Y2375016D01*
X3410430Y2384540D01*
X3400907Y2394063D01*
X3391383Y2413111D01*
X3381859Y2451206D01*
X3381859Y2498825D01*
X3391383Y2536920D01*
X3400907Y2555968D01*
X3410430Y2565492D01*
X3429478Y2575016D01*
X3572335Y2555968D02*
X3581859Y2565492D01*
X3600907Y2575016D01*
X3648526Y2575016D01*
X3667573Y2565492D01*
X3677097Y2555968D01*
X3686621Y2536920D01*
X3686621Y2517873D01*
X3677097Y2489301D01*
X3562811Y2375016D01*
X3686621Y2375016D01*
X3772335Y2375016D02*
X3772335Y2508349D01*
X3772335Y2489301D02*
X3781859Y2498825D01*
X3800907Y2508349D01*
X3829478Y2508349D01*
X3848526Y2498825D01*
X3858049Y2479778D01*
X3858049Y2375016D01*
X3858049Y2479778D02*
X3867573Y2498825D01*
X3886621Y2508349D01*
X3915192Y2508349D01*
X3934240Y2498825D01*
X3943764Y2479778D01*
X3943764Y2375016D01*
X4039002Y2375016D02*
X4039002Y2508349D01*
X4039002Y2489301D02*
X4048526Y2498825D01*
X4067573Y2508349D01*
X4096145Y2508349D01*
X4115192Y2498825D01*
X4124716Y2479778D01*
X4124716Y2375016D01*
X4124716Y2479778D02*
X4134240Y2498825D01*
X4153287Y2508349D01*
X4181859Y2508349D01*
X4200907Y2498825D01*
X4210430Y2479778D01*
X4210430Y2375016D01*
X4600907Y2584540D02*
X4429478Y2327397D01*
X4858049Y2575016D02*
X4877097Y2575016D01*
X4896145Y2565492D01*
X4905669Y2555968D01*
X4915192Y2536920D01*
X4924716Y2498825D01*
X4924716Y2451206D01*
X4915192Y2413111D01*
X4905669Y2394063D01*
X4896145Y2384540D01*
X4877097Y2375016D01*
X4858049Y2375016D01*
X4839002Y2384540D01*
X4829478Y2394063D01*
X4819954Y2413111D01*
X4810430Y2451206D01*
X4810430Y2498825D01*
X4819954Y2536920D01*
X4829478Y2555968D01*
X4839002Y2565492D01*
X4858049Y2575016D01*
X5010430Y2394063D02*
X5019954Y2384540D01*
X5010430Y2375016D01*
X5000907Y2384540D01*
X5010430Y2394063D01*
X5010430Y2375016D01*
X5143764Y2575016D02*
X5162811Y2575016D01*
X5181859Y2565492D01*
X5191383Y2555968D01*
X5200907Y2536920D01*
X5210430Y2498825D01*
X5210430Y2451206D01*
X5200907Y2413111D01*
X5191383Y2394063D01*
X5181859Y2384540D01*
X5162811Y2375016D01*
X5143764Y2375016D01*
X5124716Y2384540D01*
X5115192Y2394063D01*
X5105669Y2413111D01*
X5096145Y2451206D01*
X5096145Y2498825D01*
X5105669Y2536920D01*
X5115192Y2555968D01*
X5124716Y2565492D01*
X5143764Y2575016D01*
X5381859Y2575016D02*
X5343764Y2575016D01*
X5324716Y2565492D01*
X5315192Y2555968D01*
X5296145Y2527397D01*
X5286621Y2489301D01*
X5286621Y2413111D01*
X5296145Y2394063D01*
X5305669Y2384540D01*
X5324716Y2375016D01*
X5362811Y2375016D01*
X5381859Y2384540D01*
X5391383Y2394063D01*
X5400907Y2413111D01*
X5400907Y2460730D01*
X5391383Y2479778D01*
X5381859Y2489301D01*
X5362811Y2498825D01*
X5324716Y2498825D01*
X5305669Y2489301D01*
X5296145Y2479778D01*
X5286621Y2460730D01*
X5467573Y2575016D02*
X5600907Y2575016D01*
X5515192Y2375016D01*
X5715192Y2575016D02*
X5734240Y2575016D01*
X5753287Y2565492D01*
X5762811Y2555968D01*
X5772335Y2536920D01*
X5781859Y2498825D01*
X5781859Y2451206D01*
X5772335Y2413111D01*
X5762811Y2394063D01*
X5753287Y2384540D01*
X5734240Y2375016D01*
X5715192Y2375016D01*
X5696145Y2384540D01*
X5686621Y2394063D01*
X5677097Y2413111D01*
X5667573Y2451206D01*
X5667573Y2498825D01*
X5677097Y2536920D01*
X5686621Y2555968D01*
X5696145Y2565492D01*
X5715192Y2575016D01*
X5858049Y2575016D02*
X5858049Y2536920D01*
X5934240Y2575016D02*
X5934240Y2536920D01*
X6229478Y2298825D02*
X6219954Y2308349D01*
X6200907Y2336920D01*
X6191383Y2355968D01*
X6181859Y2384540D01*
X6172335Y2432159D01*
X6172335Y2470254D01*
X6181859Y2517873D01*
X6191383Y2546444D01*
X6200907Y2565492D01*
X6219954Y2594063D01*
X6229478Y2603587D01*
X6286621Y2575016D02*
X6410430Y2575016D01*
X6343764Y2498825D01*
X6372335Y2498825D01*
X6391383Y2489301D01*
X6400907Y2479778D01*
X6410430Y2460730D01*
X6410430Y2413111D01*
X6400907Y2394063D01*
X6391383Y2384540D01*
X6372335Y2375016D01*
X6315192Y2375016D01*
X6296145Y2384540D01*
X6286621Y2394063D01*
X6581859Y2508349D02*
X6581859Y2375016D01*
X6534240Y2584540D02*
X6486621Y2441682D01*
X6610430Y2441682D01*
X6839002Y2375016D02*
X6839002Y2575016D01*
X6924716Y2375016D02*
X6924716Y2479778D01*
X6915192Y2498825D01*
X6896145Y2508349D01*
X6867573Y2508349D01*
X6848526Y2498825D01*
X6839002Y2489301D01*
X7048526Y2375016D02*
X7029478Y2384540D01*
X7019954Y2394063D01*
X7010430Y2413111D01*
X7010430Y2470254D01*
X7019954Y2489301D01*
X7029478Y2498825D01*
X7048526Y2508349D01*
X7077097Y2508349D01*
X7096145Y2498825D01*
X7105668Y2489301D01*
X7115192Y2470254D01*
X7115192Y2413111D01*
X7105668Y2394063D01*
X7096145Y2384540D01*
X7077097Y2375016D01*
X7048526Y2375016D01*
X7229478Y2375016D02*
X7210430Y2384540D01*
X7200907Y2403587D01*
X7200907Y2575016D01*
X7381859Y2384540D02*
X7362811Y2375016D01*
X7324716Y2375016D01*
X7305668Y2384540D01*
X7296145Y2403587D01*
X7296145Y2479778D01*
X7305668Y2498825D01*
X7324716Y2508349D01*
X7362811Y2508349D01*
X7381859Y2498825D01*
X7391383Y2479778D01*
X7391383Y2460730D01*
X7296145Y2441682D01*
X7467573Y2384540D02*
X7486621Y2375016D01*
X7524716Y2375016D01*
X7543764Y2384540D01*
X7553287Y2403587D01*
X7553287Y2413111D01*
X7543764Y2432159D01*
X7524716Y2441682D01*
X7496145Y2441682D01*
X7477097Y2451206D01*
X7467573Y2470254D01*
X7467573Y2479778D01*
X7477097Y2498825D01*
X7496145Y2508349D01*
X7524716Y2508349D01*
X7543764Y2498825D01*
X7619954Y2298825D02*
X7629478Y2308349D01*
X7648526Y2336920D01*
X7658049Y2355968D01*
X7667573Y2384540D01*
X7677097Y2432159D01*
X7677097Y2470254D01*
X7667573Y2517873D01*
X7658049Y2546444D01*
X7648526Y2565492D01*
X7629478Y2594063D01*
X7619954Y2603587D01*
X7981859Y2298825D02*
X7972335Y2308349D01*
X7953287Y2336920D01*
X7943764Y2355968D01*
X7934240Y2384540D01*
X7924716Y2432159D01*
X7924716Y2470254D01*
X7934240Y2517873D01*
X7943764Y2546444D01*
X7953287Y2565492D01*
X7972335Y2594063D01*
X7981859Y2603587D01*
X8058049Y2508349D02*
X8058049Y2375016D01*
X8058049Y2489301D02*
X8067573Y2498825D01*
X8086621Y2508349D01*
X8115192Y2508349D01*
X8134240Y2498825D01*
X8143764Y2479778D01*
X8143764Y2375016D01*
X8267573Y2375016D02*
X8248526Y2384540D01*
X8239002Y2394063D01*
X8229478Y2413111D01*
X8229478Y2470254D01*
X8239002Y2489301D01*
X8248526Y2498825D01*
X8267573Y2508349D01*
X8296145Y2508349D01*
X8315192Y2498825D01*
X8324716Y2489301D01*
X8334240Y2470254D01*
X8334240Y2413111D01*
X8324716Y2394063D01*
X8315192Y2384540D01*
X8296145Y2375016D01*
X8267573Y2375016D01*
X8391383Y2508349D02*
X8467573Y2508349D01*
X8419954Y2575016D02*
X8419954Y2403587D01*
X8429478Y2384540D01*
X8448526Y2375016D01*
X8467573Y2375016D01*
X8686621Y2508349D02*
X8686621Y2308349D01*
X8686621Y2498825D02*
X8705669Y2508349D01*
X8743764Y2508349D01*
X8762811Y2498825D01*
X8772335Y2489301D01*
X8781859Y2470254D01*
X8781859Y2413111D01*
X8772335Y2394063D01*
X8762811Y2384540D01*
X8743764Y2375016D01*
X8705669Y2375016D01*
X8686621Y2384540D01*
X8896145Y2375016D02*
X8877097Y2384540D01*
X8867573Y2403587D01*
X8867573Y2575016D01*
X9058049Y2375016D02*
X9058049Y2479778D01*
X9048526Y2498825D01*
X9029478Y2508349D01*
X8991383Y2508349D01*
X8972335Y2498825D01*
X9058049Y2384540D02*
X9039002Y2375016D01*
X8991383Y2375016D01*
X8972335Y2384540D01*
X8962811Y2403587D01*
X8962811Y2422635D01*
X8972335Y2441682D01*
X8991383Y2451206D01*
X9039002Y2451206D01*
X9058049Y2460730D01*
X9124716Y2508349D02*
X9200907Y2508349D01*
X9153288Y2575016D02*
X9153288Y2403587D01*
X9162811Y2384540D01*
X9181859Y2375016D01*
X9200907Y2375016D01*
X9343764Y2384540D02*
X9324716Y2375016D01*
X9286621Y2375016D01*
X9267573Y2384540D01*
X9258049Y2403587D01*
X9258049Y2479778D01*
X9267573Y2498825D01*
X9286621Y2508349D01*
X9324716Y2508349D01*
X9343764Y2498825D01*
X9353288Y2479778D01*
X9353288Y2460730D01*
X9258049Y2441682D01*
X9524716Y2375016D02*
X9524716Y2575016D01*
X9524716Y2384540D02*
X9505669Y2375016D01*
X9467573Y2375016D01*
X9448526Y2384540D01*
X9439002Y2394063D01*
X9429478Y2413111D01*
X9429478Y2470254D01*
X9439002Y2489301D01*
X9448526Y2498825D01*
X9467573Y2508349D01*
X9505669Y2508349D01*
X9524716Y2498825D01*
X9600907Y2298825D02*
X9610430Y2308349D01*
X9629478Y2336920D01*
X9639002Y2355968D01*
X9648526Y2384540D01*
X9658049Y2432159D01*
X9658049Y2470254D01*
X9648526Y2517873D01*
X9639002Y2546444D01*
X9629478Y2565492D01*
X9610430Y2594063D01*
X9600907Y2603587D01*
X2557573Y2275312D02*
X2557573Y2075312D01*
X2457573Y2175312D02*
X2657573Y2175312D01*
X2896145Y2284836D02*
X3019954Y2284836D01*
X2953287Y2208645D01*
X2981859Y2208645D01*
X3000907Y2199121D01*
X3010430Y2189598D01*
X3019954Y2170550D01*
X3019954Y2122931D01*
X3010430Y2103883D01*
X3000907Y2094359D01*
X2981859Y2084836D01*
X2924716Y2084836D01*
X2905668Y2094359D01*
X2896145Y2103883D01*
X3105668Y2103883D02*
X3115192Y2094359D01*
X3105668Y2084836D01*
X3096145Y2094359D01*
X3105668Y2103883D01*
X3105668Y2084836D01*
X3239002Y2284836D02*
X3258049Y2284836D01*
X3277097Y2275312D01*
X3286621Y2265788D01*
X3296145Y2246740D01*
X3305668Y2208645D01*
X3305668Y2161026D01*
X3296145Y2122931D01*
X3286621Y2103883D01*
X3277097Y2094359D01*
X3258049Y2084836D01*
X3239002Y2084836D01*
X3219954Y2094359D01*
X3210430Y2103883D01*
X3200907Y2122931D01*
X3191383Y2161026D01*
X3191383Y2208645D01*
X3200907Y2246740D01*
X3210430Y2265788D01*
X3219954Y2275312D01*
X3239002Y2284836D01*
X3429478Y2284836D02*
X3448526Y2284836D01*
X3467573Y2275312D01*
X3477097Y2265788D01*
X3486621Y2246740D01*
X3496145Y2208645D01*
X3496145Y2161026D01*
X3486621Y2122931D01*
X3477097Y2103883D01*
X3467573Y2094359D01*
X3448526Y2084836D01*
X3429478Y2084836D01*
X3410430Y2094359D01*
X3400907Y2103883D01*
X3391383Y2122931D01*
X3381859Y2161026D01*
X3381859Y2208645D01*
X3391383Y2246740D01*
X3400907Y2265788D01*
X3410430Y2275312D01*
X3429478Y2284836D01*
X3619954Y2284836D02*
X3639002Y2284836D01*
X3658049Y2275312D01*
X3667573Y2265788D01*
X3677097Y2246740D01*
X3686621Y2208645D01*
X3686621Y2161026D01*
X3677097Y2122931D01*
X3667573Y2103883D01*
X3658049Y2094359D01*
X3639002Y2084836D01*
X3619954Y2084836D01*
X3600907Y2094359D01*
X3591383Y2103883D01*
X3581859Y2122931D01*
X3572335Y2161026D01*
X3572335Y2208645D01*
X3581859Y2246740D01*
X3591383Y2265788D01*
X3600907Y2275312D01*
X3619954Y2284836D01*
X3772335Y2084836D02*
X3772335Y2218169D01*
X3772335Y2199121D02*
X3781859Y2208645D01*
X3800907Y2218169D01*
X3829478Y2218169D01*
X3848526Y2208645D01*
X3858049Y2189598D01*
X3858049Y2084836D01*
X3858049Y2189598D02*
X3867573Y2208645D01*
X3886621Y2218169D01*
X3915192Y2218169D01*
X3934240Y2208645D01*
X3943764Y2189598D01*
X3943764Y2084836D01*
X4039002Y2084836D02*
X4039002Y2218169D01*
X4039002Y2199121D02*
X4048526Y2208645D01*
X4067573Y2218169D01*
X4096145Y2218169D01*
X4115192Y2208645D01*
X4124716Y2189598D01*
X4124716Y2084836D01*
X4124716Y2189598D02*
X4134240Y2208645D01*
X4153287Y2218169D01*
X4181859Y2218169D01*
X4200907Y2208645D01*
X4210430Y2189598D01*
X4210430Y2084836D01*
X4600907Y2294360D02*
X4429478Y2037217D01*
X4858049Y2284836D02*
X4877097Y2284836D01*
X4896145Y2275312D01*
X4905669Y2265788D01*
X4915192Y2246740D01*
X4924716Y2208645D01*
X4924716Y2161026D01*
X4915192Y2122931D01*
X4905669Y2103883D01*
X4896145Y2094359D01*
X4877097Y2084836D01*
X4858049Y2084836D01*
X4839002Y2094359D01*
X4829478Y2103883D01*
X4819954Y2122931D01*
X4810430Y2161026D01*
X4810430Y2208645D01*
X4819954Y2246740D01*
X4829478Y2265788D01*
X4839002Y2275312D01*
X4858049Y2284836D01*
X5010430Y2103883D02*
X5019954Y2094359D01*
X5010430Y2084836D01*
X5000907Y2094359D01*
X5010430Y2103883D01*
X5010430Y2084836D01*
X5210430Y2084836D02*
X5096145Y2084836D01*
X5153288Y2084836D02*
X5153288Y2284836D01*
X5134240Y2256264D01*
X5115192Y2237217D01*
X5096145Y2227693D01*
X5400907Y2084836D02*
X5286621Y2084836D01*
X5343764Y2084836D02*
X5343764Y2284836D01*
X5324716Y2256264D01*
X5305669Y2237217D01*
X5286621Y2227693D01*
X5515192Y2199121D02*
X5496145Y2208645D01*
X5486621Y2218169D01*
X5477097Y2237217D01*
X5477097Y2246740D01*
X5486621Y2265788D01*
X5496145Y2275312D01*
X5515192Y2284836D01*
X5553288Y2284836D01*
X5572335Y2275312D01*
X5581859Y2265788D01*
X5591383Y2246740D01*
X5591383Y2237217D01*
X5581859Y2218169D01*
X5572335Y2208645D01*
X5553288Y2199121D01*
X5515192Y2199121D01*
X5496145Y2189598D01*
X5486621Y2180074D01*
X5477097Y2161026D01*
X5477097Y2122931D01*
X5486621Y2103883D01*
X5496145Y2094359D01*
X5515192Y2084836D01*
X5553288Y2084836D01*
X5572335Y2094359D01*
X5581859Y2103883D01*
X5591383Y2122931D01*
X5591383Y2161026D01*
X5581859Y2180074D01*
X5572335Y2189598D01*
X5553288Y2199121D01*
X5781859Y2084836D02*
X5667573Y2084836D01*
X5724716Y2084836D02*
X5724716Y2284836D01*
X5705668Y2256264D01*
X5686621Y2237217D01*
X5667573Y2227693D01*
X5858049Y2284836D02*
X5858049Y2246740D01*
X5934240Y2284836D02*
X5934240Y2246740D01*
X6229478Y2008645D02*
X6219954Y2018169D01*
X6200907Y2046740D01*
X6191383Y2065788D01*
X6181859Y2094359D01*
X6172335Y2141979D01*
X6172335Y2180074D01*
X6181859Y2227693D01*
X6191383Y2256264D01*
X6200907Y2275312D01*
X6219954Y2303883D01*
X6229478Y2313407D01*
X6400907Y2284836D02*
X6305668Y2284836D01*
X6296145Y2189598D01*
X6305668Y2199121D01*
X6324716Y2208645D01*
X6372335Y2208645D01*
X6391383Y2199121D01*
X6400907Y2189598D01*
X6410430Y2170550D01*
X6410430Y2122931D01*
X6400907Y2103883D01*
X6391383Y2094359D01*
X6372335Y2084836D01*
X6324716Y2084836D01*
X6305668Y2094359D01*
X6296145Y2103883D01*
X6600907Y2084836D02*
X6486621Y2084836D01*
X6543764Y2084836D02*
X6543764Y2284836D01*
X6524716Y2256264D01*
X6505668Y2237217D01*
X6486621Y2227693D01*
X6839002Y2084836D02*
X6839002Y2284836D01*
X6924716Y2084836D02*
X6924716Y2189598D01*
X6915192Y2208645D01*
X6896145Y2218169D01*
X6867573Y2218169D01*
X6848526Y2208645D01*
X6839002Y2199121D01*
X7048526Y2084836D02*
X7029478Y2094359D01*
X7019954Y2103883D01*
X7010430Y2122931D01*
X7010430Y2180074D01*
X7019954Y2199121D01*
X7029478Y2208645D01*
X7048526Y2218169D01*
X7077097Y2218169D01*
X7096145Y2208645D01*
X7105668Y2199121D01*
X7115192Y2180074D01*
X7115192Y2122931D01*
X7105668Y2103883D01*
X7096145Y2094359D01*
X7077097Y2084836D01*
X7048526Y2084836D01*
X7229478Y2084836D02*
X7210430Y2094359D01*
X7200907Y2113407D01*
X7200907Y2284836D01*
X7381859Y2094359D02*
X7362811Y2084836D01*
X7324716Y2084836D01*
X7305668Y2094359D01*
X7296145Y2113407D01*
X7296145Y2189598D01*
X7305668Y2208645D01*
X7324716Y2218169D01*
X7362811Y2218169D01*
X7381859Y2208645D01*
X7391383Y2189598D01*
X7391383Y2170550D01*
X7296145Y2151502D01*
X7467573Y2094359D02*
X7486621Y2084836D01*
X7524716Y2084836D01*
X7543764Y2094359D01*
X7553287Y2113407D01*
X7553287Y2122931D01*
X7543764Y2141979D01*
X7524716Y2151502D01*
X7496145Y2151502D01*
X7477097Y2161026D01*
X7467573Y2180074D01*
X7467573Y2189598D01*
X7477097Y2208645D01*
X7496145Y2218169D01*
X7524716Y2218169D01*
X7543764Y2208645D01*
X7619954Y2008645D02*
X7629478Y2018169D01*
X7648526Y2046740D01*
X7658049Y2065788D01*
X7667573Y2094359D01*
X7677097Y2141979D01*
X7677097Y2180074D01*
X7667573Y2227693D01*
X7658049Y2256264D01*
X7648526Y2275312D01*
X7629478Y2303883D01*
X7619954Y2313407D01*
X7981859Y2008645D02*
X7972335Y2018169D01*
X7953287Y2046740D01*
X7943764Y2065788D01*
X7934240Y2094359D01*
X7924716Y2141979D01*
X7924716Y2180074D01*
X7934240Y2227693D01*
X7943764Y2256264D01*
X7953287Y2275312D01*
X7972335Y2303883D01*
X7981859Y2313407D01*
X8058049Y2218169D02*
X8058049Y2084836D01*
X8058049Y2199121D02*
X8067573Y2208645D01*
X8086621Y2218169D01*
X8115192Y2218169D01*
X8134240Y2208645D01*
X8143764Y2189598D01*
X8143764Y2084836D01*
X8267573Y2084836D02*
X8248526Y2094359D01*
X8239002Y2103883D01*
X8229478Y2122931D01*
X8229478Y2180074D01*
X8239002Y2199121D01*
X8248526Y2208645D01*
X8267573Y2218169D01*
X8296145Y2218169D01*
X8315192Y2208645D01*
X8324716Y2199121D01*
X8334240Y2180074D01*
X8334240Y2122931D01*
X8324716Y2103883D01*
X8315192Y2094359D01*
X8296145Y2084836D01*
X8267573Y2084836D01*
X8391383Y2218169D02*
X8467573Y2218169D01*
X8419954Y2284836D02*
X8419954Y2113407D01*
X8429478Y2094359D01*
X8448526Y2084836D01*
X8467573Y2084836D01*
X8686621Y2218169D02*
X8686621Y2018169D01*
X8686621Y2208645D02*
X8705669Y2218169D01*
X8743764Y2218169D01*
X8762811Y2208645D01*
X8772335Y2199121D01*
X8781859Y2180074D01*
X8781859Y2122931D01*
X8772335Y2103883D01*
X8762811Y2094359D01*
X8743764Y2084836D01*
X8705669Y2084836D01*
X8686621Y2094359D01*
X8896145Y2084836D02*
X8877097Y2094359D01*
X8867573Y2113407D01*
X8867573Y2284836D01*
X9058049Y2084836D02*
X9058049Y2189598D01*
X9048526Y2208645D01*
X9029478Y2218169D01*
X8991383Y2218169D01*
X8972335Y2208645D01*
X9058049Y2094359D02*
X9039002Y2084836D01*
X8991383Y2084836D01*
X8972335Y2094359D01*
X8962811Y2113407D01*
X8962811Y2132455D01*
X8972335Y2151502D01*
X8991383Y2161026D01*
X9039002Y2161026D01*
X9058049Y2170550D01*
X9124716Y2218169D02*
X9200907Y2218169D01*
X9153288Y2284836D02*
X9153288Y2113407D01*
X9162811Y2094359D01*
X9181859Y2084836D01*
X9200907Y2084836D01*
X9343764Y2094359D02*
X9324716Y2084836D01*
X9286621Y2084836D01*
X9267573Y2094359D01*
X9258049Y2113407D01*
X9258049Y2189598D01*
X9267573Y2208645D01*
X9286621Y2218169D01*
X9324716Y2218169D01*
X9343764Y2208645D01*
X9353288Y2189598D01*
X9353288Y2170550D01*
X9258049Y2151502D01*
X9524716Y2084836D02*
X9524716Y2284836D01*
X9524716Y2094359D02*
X9505669Y2084836D01*
X9467573Y2084836D01*
X9448526Y2094359D01*
X9439002Y2103883D01*
X9429478Y2122931D01*
X9429478Y2180074D01*
X9439002Y2199121D01*
X9448526Y2208645D01*
X9467573Y2218169D01*
X9505669Y2218169D01*
X9524716Y2208645D01*
X9600907Y2008645D02*
X9610430Y2018169D01*
X9629478Y2046740D01*
X9639002Y2065788D01*
X9648526Y2094359D01*
X9658049Y2141979D01*
X9658049Y2180074D01*
X9648526Y2227693D01*
X9639002Y2256264D01*
X9629478Y2275312D01*
X9610430Y2303883D01*
X9600907Y2313407D01*
X2628285Y1784600D02*
X2628285Y1926023D01*
X2486862Y1926023D01*
X2486862Y1784600D01*
X2628285Y1784600D01*
X2896145Y1964836D02*
X3019954Y1964836D01*
X2953287Y1888645D01*
X2981859Y1888645D01*
X3000907Y1879121D01*
X3010430Y1869598D01*
X3019954Y1850550D01*
X3019954Y1802931D01*
X3010430Y1783883D01*
X3000907Y1774359D01*
X2981859Y1764836D01*
X2924716Y1764836D01*
X2905668Y1774359D01*
X2896145Y1783883D01*
X3105668Y1783883D02*
X3115192Y1774359D01*
X3105668Y1764836D01*
X3096145Y1774359D01*
X3105668Y1783883D01*
X3105668Y1764836D01*
X3286621Y1898169D02*
X3286621Y1764836D01*
X3239002Y1974359D02*
X3191383Y1831502D01*
X3315192Y1831502D01*
X3381859Y1945788D02*
X3391383Y1955312D01*
X3410430Y1964836D01*
X3458049Y1964836D01*
X3477097Y1955312D01*
X3486621Y1945788D01*
X3496145Y1926740D01*
X3496145Y1907693D01*
X3486621Y1879121D01*
X3372335Y1764836D01*
X3496145Y1764836D01*
X3591383Y1764836D02*
X3629478Y1764836D01*
X3648526Y1774359D01*
X3658049Y1783883D01*
X3677097Y1812455D01*
X3686621Y1850550D01*
X3686621Y1926740D01*
X3677097Y1945788D01*
X3667573Y1955312D01*
X3648526Y1964836D01*
X3610430Y1964836D01*
X3591383Y1955312D01*
X3581859Y1945788D01*
X3572335Y1926740D01*
X3572335Y1879121D01*
X3581859Y1860074D01*
X3591383Y1850550D01*
X3610430Y1841026D01*
X3648526Y1841026D01*
X3667573Y1850550D01*
X3677097Y1860074D01*
X3686621Y1879121D01*
X3772335Y1764836D02*
X3772335Y1898169D01*
X3772335Y1879121D02*
X3781859Y1888645D01*
X3800907Y1898169D01*
X3829478Y1898169D01*
X3848526Y1888645D01*
X3858049Y1869598D01*
X3858049Y1764836D01*
X3858049Y1869598D02*
X3867573Y1888645D01*
X3886621Y1898169D01*
X3915192Y1898169D01*
X3934240Y1888645D01*
X3943764Y1869598D01*
X3943764Y1764836D01*
X4039002Y1764836D02*
X4039002Y1898169D01*
X4039002Y1879121D02*
X4048526Y1888645D01*
X4067573Y1898169D01*
X4096145Y1898169D01*
X4115192Y1888645D01*
X4124716Y1869598D01*
X4124716Y1764836D01*
X4124716Y1869598D02*
X4134240Y1888645D01*
X4153287Y1898169D01*
X4181859Y1898169D01*
X4200907Y1888645D01*
X4210430Y1869598D01*
X4210430Y1764836D01*
X4600907Y1974359D02*
X4429478Y1717217D01*
X4858049Y1964836D02*
X4877097Y1964836D01*
X4896145Y1955312D01*
X4905669Y1945788D01*
X4915192Y1926740D01*
X4924716Y1888645D01*
X4924716Y1841026D01*
X4915192Y1802931D01*
X4905669Y1783883D01*
X4896145Y1774359D01*
X4877097Y1764836D01*
X4858049Y1764836D01*
X4839002Y1774359D01*
X4829478Y1783883D01*
X4819954Y1802931D01*
X4810430Y1841026D01*
X4810430Y1888645D01*
X4819954Y1926740D01*
X4829478Y1945788D01*
X4839002Y1955312D01*
X4858049Y1964836D01*
X5010430Y1783883D02*
X5019954Y1774359D01*
X5010430Y1764836D01*
X5000907Y1774359D01*
X5010430Y1783883D01*
X5010430Y1764836D01*
X5210430Y1764836D02*
X5096145Y1764836D01*
X5153288Y1764836D02*
X5153288Y1964836D01*
X5134240Y1936264D01*
X5115192Y1917217D01*
X5096145Y1907693D01*
X5277097Y1964836D02*
X5400907Y1964836D01*
X5334240Y1888645D01*
X5362811Y1888645D01*
X5381859Y1879121D01*
X5391383Y1869598D01*
X5400907Y1850550D01*
X5400907Y1802931D01*
X5391383Y1783883D01*
X5381859Y1774359D01*
X5362811Y1764836D01*
X5305669Y1764836D01*
X5286621Y1774359D01*
X5277097Y1783883D01*
X5581859Y1964836D02*
X5486621Y1964836D01*
X5477097Y1869598D01*
X5486621Y1879121D01*
X5505669Y1888645D01*
X5553288Y1888645D01*
X5572335Y1879121D01*
X5581859Y1869598D01*
X5591383Y1850550D01*
X5591383Y1802931D01*
X5581859Y1783883D01*
X5572335Y1774359D01*
X5553288Y1764836D01*
X5505669Y1764836D01*
X5486621Y1774359D01*
X5477097Y1783883D01*
X5715192Y1964836D02*
X5734240Y1964836D01*
X5753287Y1955312D01*
X5762811Y1945788D01*
X5772335Y1926740D01*
X5781859Y1888645D01*
X5781859Y1841026D01*
X5772335Y1802931D01*
X5762811Y1783883D01*
X5753287Y1774359D01*
X5734240Y1764836D01*
X5715192Y1764836D01*
X5696145Y1774359D01*
X5686621Y1783883D01*
X5677097Y1802931D01*
X5667573Y1841026D01*
X5667573Y1888645D01*
X5677097Y1926740D01*
X5686621Y1945788D01*
X5696145Y1955312D01*
X5715192Y1964836D01*
X5858049Y1964836D02*
X5858049Y1926740D01*
X5934240Y1964836D02*
X5934240Y1926740D01*
X6229478Y1688645D02*
X6219954Y1698169D01*
X6200907Y1726740D01*
X6191383Y1745788D01*
X6181859Y1774359D01*
X6172335Y1821978D01*
X6172335Y1860074D01*
X6181859Y1907693D01*
X6191383Y1936264D01*
X6200907Y1955312D01*
X6219954Y1983883D01*
X6229478Y1993407D01*
X6410430Y1764836D02*
X6296145Y1764836D01*
X6353287Y1764836D02*
X6353287Y1964836D01*
X6334240Y1936264D01*
X6315192Y1917217D01*
X6296145Y1907693D01*
X6477097Y1964836D02*
X6610430Y1964836D01*
X6524716Y1764836D01*
X6839002Y1764836D02*
X6839002Y1964836D01*
X6924716Y1764836D02*
X6924716Y1869598D01*
X6915192Y1888645D01*
X6896145Y1898169D01*
X6867573Y1898169D01*
X6848526Y1888645D01*
X6839002Y1879121D01*
X7048526Y1764836D02*
X7029478Y1774359D01*
X7019954Y1783883D01*
X7010430Y1802931D01*
X7010430Y1860074D01*
X7019954Y1879121D01*
X7029478Y1888645D01*
X7048526Y1898169D01*
X7077097Y1898169D01*
X7096145Y1888645D01*
X7105668Y1879121D01*
X7115192Y1860074D01*
X7115192Y1802931D01*
X7105668Y1783883D01*
X7096145Y1774359D01*
X7077097Y1764836D01*
X7048526Y1764836D01*
X7229478Y1764836D02*
X7210430Y1774359D01*
X7200907Y1793407D01*
X7200907Y1964836D01*
X7381859Y1774359D02*
X7362811Y1764836D01*
X7324716Y1764836D01*
X7305668Y1774359D01*
X7296145Y1793407D01*
X7296145Y1869598D01*
X7305668Y1888645D01*
X7324716Y1898169D01*
X7362811Y1898169D01*
X7381859Y1888645D01*
X7391383Y1869598D01*
X7391383Y1850550D01*
X7296145Y1831502D01*
X7467573Y1774359D02*
X7486621Y1764836D01*
X7524716Y1764836D01*
X7543764Y1774359D01*
X7553287Y1793407D01*
X7553287Y1802931D01*
X7543764Y1821978D01*
X7524716Y1831502D01*
X7496145Y1831502D01*
X7477097Y1841026D01*
X7467573Y1860074D01*
X7467573Y1869598D01*
X7477097Y1888645D01*
X7496145Y1898169D01*
X7524716Y1898169D01*
X7543764Y1888645D01*
X7619954Y1688645D02*
X7629478Y1698169D01*
X7648526Y1726740D01*
X7658049Y1745788D01*
X7667573Y1774359D01*
X7677097Y1821978D01*
X7677097Y1860074D01*
X7667573Y1907693D01*
X7658049Y1936264D01*
X7648526Y1955312D01*
X7629478Y1983883D01*
X7619954Y1993407D01*
X7981859Y1688645D02*
X7972335Y1698169D01*
X7953287Y1726740D01*
X7943764Y1745788D01*
X7934240Y1774359D01*
X7924716Y1821978D01*
X7924716Y1860074D01*
X7934240Y1907693D01*
X7943764Y1936264D01*
X7953287Y1955312D01*
X7972335Y1983883D01*
X7981859Y1993407D01*
X8058049Y1898169D02*
X8058049Y1764836D01*
X8058049Y1879121D02*
X8067573Y1888645D01*
X8086621Y1898169D01*
X8115192Y1898169D01*
X8134240Y1888645D01*
X8143764Y1869598D01*
X8143764Y1764836D01*
X8267573Y1764836D02*
X8248526Y1774359D01*
X8239002Y1783883D01*
X8229478Y1802931D01*
X8229478Y1860074D01*
X8239002Y1879121D01*
X8248526Y1888645D01*
X8267573Y1898169D01*
X8296145Y1898169D01*
X8315192Y1888645D01*
X8324716Y1879121D01*
X8334240Y1860074D01*
X8334240Y1802931D01*
X8324716Y1783883D01*
X8315192Y1774359D01*
X8296145Y1764836D01*
X8267573Y1764836D01*
X8391383Y1898169D02*
X8467573Y1898169D01*
X8419954Y1964836D02*
X8419954Y1793407D01*
X8429478Y1774359D01*
X8448526Y1764836D01*
X8467573Y1764836D01*
X8686621Y1898169D02*
X8686621Y1698169D01*
X8686621Y1888645D02*
X8705669Y1898169D01*
X8743764Y1898169D01*
X8762811Y1888645D01*
X8772335Y1879121D01*
X8781859Y1860074D01*
X8781859Y1802931D01*
X8772335Y1783883D01*
X8762811Y1774359D01*
X8743764Y1764836D01*
X8705669Y1764836D01*
X8686621Y1774359D01*
X8896145Y1764836D02*
X8877097Y1774359D01*
X8867573Y1793407D01*
X8867573Y1964836D01*
X9058049Y1764836D02*
X9058049Y1869598D01*
X9048526Y1888645D01*
X9029478Y1898169D01*
X8991383Y1898169D01*
X8972335Y1888645D01*
X9058049Y1774359D02*
X9039002Y1764836D01*
X8991383Y1764836D01*
X8972335Y1774359D01*
X8962811Y1793407D01*
X8962811Y1812455D01*
X8972335Y1831502D01*
X8991383Y1841026D01*
X9039002Y1841026D01*
X9058049Y1850550D01*
X9124716Y1898169D02*
X9200907Y1898169D01*
X9153288Y1964836D02*
X9153288Y1793407D01*
X9162811Y1774359D01*
X9181859Y1764836D01*
X9200907Y1764836D01*
X9343764Y1774359D02*
X9324716Y1764836D01*
X9286621Y1764836D01*
X9267573Y1774359D01*
X9258049Y1793407D01*
X9258049Y1869598D01*
X9267573Y1888645D01*
X9286621Y1898169D01*
X9324716Y1898169D01*
X9343764Y1888645D01*
X9353288Y1869598D01*
X9353288Y1850550D01*
X9258049Y1831502D01*
X9524716Y1764836D02*
X9524716Y1964836D01*
X9524716Y1774359D02*
X9505669Y1764836D01*
X9467573Y1764836D01*
X9448526Y1774359D01*
X9439002Y1783883D01*
X9429478Y1802931D01*
X9429478Y1860074D01*
X9439002Y1879121D01*
X9448526Y1888645D01*
X9467573Y1898169D01*
X9505669Y1898169D01*
X9524716Y1888645D01*
X9600907Y1688645D02*
X9610430Y1698169D01*
X9629478Y1726740D01*
X9639002Y1745788D01*
X9648526Y1774359D01*
X9658049Y1821978D01*
X9658049Y1860074D01*
X9648526Y1907693D01*
X9639002Y1936264D01*
X9629478Y1955312D01*
X9610430Y1983883D01*
X9600907Y1993407D01*
M02*
